<svg xmlns="http://www.w3.org/2000/svg" width="40.92" height="31.604" viewBox="0 0 40.92 31.604">
  <g id="Group_287" data-name="Group 287" transform="translate(0)">
    <g id="Group_274" data-name="Group 274" transform="translate(13.387 3.297)">
      <g id="Group_273" data-name="Group 273">
        <path id="Path_11789" data-name="Path 11789" d="M3257.768,1063.367a12.424,12.424,0,0,1,7.266,2.326.7.7,0,1,1-.818,1.143,11.112,11.112,0,1,0,1.832,1.644.7.7,0,0,1,1.048-.936,12.505,12.505,0,1,1-9.328-4.176Z" transform="translate(-3245.263 -1063.367)" fill="#baa566"/>
      </g>
    </g>
    <g id="Group_276" data-name="Group 276" transform="translate(0 0)">
      <g id="Group_275" data-name="Group 275">
        <path id="Path_11790" data-name="Path 11790" d="M3245.026,1059.338h35.228a2.849,2.849,0,0,1,2.846,2.846V1088.1a2.849,2.849,0,0,1-2.846,2.846h-30.519a.7.7,0,0,1,0-1.4h30.519a1.443,1.443,0,0,0,1.441-1.441v-25.913a1.443,1.443,0,0,0-1.441-1.441h-35.228a1.442,1.442,0,0,0-1.441,1.441V1088.1a1.442,1.442,0,0,0,1.441,1.441h2.274a.7.7,0,0,1,0,1.4h-2.274a2.849,2.849,0,0,1-2.846-2.846v-25.913A2.849,2.849,0,0,1,3245.026,1059.338Z" transform="translate(-3242.18 -1059.338)" fill="#baa566"/>
      </g>
    </g>
    <g id="Group_278" data-name="Group 278" transform="translate(15.724 5.633)">
      <g id="Group_277" data-name="Group 277">
        <path id="Path_11791" data-name="Path 11791" d="M3248.82,1075.556h6.09a3.464,3.464,0,0,1,.324-.832l-.951-2.148a4.524,4.524,0,0,1,4.135-6.355.7.7,0,0,1,.7.7v6.091a3.465,3.465,0,0,1,.831.323l2.149-.951a4.522,4.522,0,0,1,6.355,4.134.7.7,0,0,1-.7.7h-6.09a3.47,3.47,0,0,1-.323.831l.951,2.148a4.523,4.523,0,0,1-4.135,6.356.7.7,0,0,1-.7-.7v-6.09a3.456,3.456,0,0,1-.833-.325l-2.146.951a4.521,4.521,0,0,1-6.355-4.135A.7.7,0,0,1,3248.82,1075.556Zm12.9.263h5.255a3.12,3.12,0,0,0-4.3-2.148l-1.561.692A3.456,3.456,0,0,1,3261.716,1075.819Zm-2.858,9.255a3.121,3.121,0,0,0,2.147-4.3l-.691-1.56a3.461,3.461,0,0,1-1.457.608Zm-.572-6.611a2.073,2.073,0,1,0-2.073-2.073A2.075,2.075,0,0,0,3258.286,1078.463Zm-2.027-4.9a3.452,3.452,0,0,1,1.456-.607v-5.255a3.12,3.12,0,0,0-2.147,4.3Zm-5.318,5.3a3.1,3.1,0,0,0,2.963.236l1.56-.691a3.455,3.455,0,0,1-.607-1.457H3249.6A3.106,3.106,0,0,0,3250.94,1078.872Z" transform="translate(-3248.118 -1066.221)" fill="#baa566"/>
      </g>
    </g>
    <g id="Group_280" data-name="Group 280" transform="translate(3.232 4.414)">
      <g id="Group_279" data-name="Group 279">
        <path id="Path_11792" data-name="Path 11792" d="M3279.512,1064.732h6.306a.7.7,0,0,1,0,1.4h-6.306a.7.7,0,1,1,0-1.4Z" transform="translate(-3278.809 -1064.732)" fill="#baa566"/>
      </g>
    </g>
    <g id="Group_282" data-name="Group 282" transform="translate(3.232 9.845)">
      <g id="Group_281" data-name="Group 281">
        <path id="Path_11793" data-name="Path 11793" d="M3279.512,1071.368h6.306a.7.7,0,0,1,0,1.405h-6.306a.7.7,0,1,1,0-1.405Z" transform="translate(-3278.809 -1071.368)" fill="#baa566"/>
      </g>
    </g>
    <g id="Group_284" data-name="Group 284" transform="translate(3.232 7.13)">
      <g id="Group_283" data-name="Group 283">
        <path id="Path_11794" data-name="Path 11794" d="M3286.149,1068.05h.874a.7.7,0,0,1,0,1.4h-.874a.7.7,0,1,1,0-1.4Z" transform="translate(-3285.446 -1068.05)" fill="#baa566"/>
      </g>
    </g>
    <g id="Group_286" data-name="Group 286" transform="translate(6.447 7.13)">
      <g id="Group_285" data-name="Group 285">
        <path id="Path_11795" data-name="Path 11795" d="M3279.511,1068.05h3.091a.7.7,0,0,1,0,1.4h-3.091a.7.7,0,0,1,0-1.4Z" transform="translate(-3278.809 -1068.05)" fill="#baa566"/>
      </g>
    </g>
  </g>
</svg>
