<svg id="ic-furniture-bed" xmlns="http://www.w3.org/2000/svg" width="32" height="32" viewBox="0 0 32 32">
  <rect id="Rectangle_143" data-name="Rectangle 143" width="32" height="32" fill="none"/>
  <g id="Layer" transform="translate(0 5.531)">
    <path id="Path_287" data-name="Path 287" d="M31.545,8.532a31.752,31.752,0,0,0-29.09,0A2.647,2.647,0,0,0,1,10.9V18.67a4.364,4.364,0,0,0,4.364,4.364v1.455a1.455,1.455,0,1,0,2.909,0V23.034H25.727v1.455a1.455,1.455,0,1,0,2.909,0V23.034A4.364,4.364,0,0,0,33,18.67V10.9a2.647,2.647,0,0,0-1.455-2.371ZM30.09,11.049v1.585a45.09,45.09,0,0,0-26.181,0V11.049a28.843,28.843,0,0,1,26.181,0Zm-1.455,9.076H5.364A1.455,1.455,0,0,1,3.909,18.67V15.863a.291.291,0,0,1,.2-.276,42.37,42.37,0,0,1,25.774,0,.291.291,0,0,1,.2.276V18.67A1.455,1.455,0,0,1,28.636,20.125Z" transform="translate(-1 -5.005)" fill="#baa566" fill-rule="evenodd"/>
  </g>
</svg>
