<svg xmlns="http://www.w3.org/2000/svg" width="33.213" height="32.495" viewBox="0 0 33.213 32.495">
  <g id="Group_923" data-name="Group 923" transform="translate(-139.948 -198.622)">
    <path id="Rectangle_835" data-name="Rectangle 835" d="M0,0H13.692a1.415,1.415,0,0,1,1.415,1.415V8.686A1.415,1.415,0,0,1,13.692,10.1H0a0,0,0,0,1,0,0V0A0,0,0,0,1,0,0Z" transform="translate(156.554 200.121)" fill="none" stroke="#baa566" stroke-miterlimit="10" stroke-width="3"/>
    <path id="Rectangle_836" data-name="Rectangle 836" d="M1.415,0H15.106a0,0,0,0,1,0,0V10.1a0,0,0,0,1,0,0H1.415A1.415,1.415,0,0,1,0,8.686V1.415A1.415,1.415,0,0,1,1.415,0Z" transform="translate(141.448 200.121)" fill="none" stroke="#baa566" stroke-miterlimit="10" stroke-width="3"/>
    <rect id="Rectangle_837" data-name="Rectangle 837" width="30.213" height="13.936" rx="2.35" transform="translate(141.448 215.681)" fill="none" stroke="#baa566" stroke-miterlimit="10" stroke-width="3"/>
    <line id="Line_28456" data-name="Line 28456" y1="13.936" transform="translate(156.554 215.681)" fill="none" stroke="#baa566" stroke-miterlimit="10" stroke-width="3"/>
  </g>
</svg>
