<svg id="Component_14_1" data-name="Component 14 – 1" xmlns="http://www.w3.org/2000/svg" width="31" height="22" viewBox="0 0 31 22">
  <text id="گالری" transform="translate(31 15)" fill="#919191" font-size="14" font-family="SegoeUI, Segoe UI" opacity="0"><tspan x="-30.393" y="0">گالری</tspan></text>
  <g id="Image_Alt_1" data-name="Image / Alt 1" transform="translate(7 1)">
    <g id="image" transform="translate(0)">
      <path id="Shape" d="M21,18H3a3,3,0,0,1-3-3V3A3,3,0,0,1,3,0H21a3,3,0,0,1,3,3V15A3,3,0,0,1,21,18ZM9,7.41l-7,7V15a1,1,0,0,0,1,1H21a1,1,0,0,0,1-1v-.59l-6-6-2.29,2.3a1,1,0,0,1-1.419,0Zm7-1.416a1.009,1.009,0,0,1,.71.3L22,11.59V3a1,1,0,0,0-1-1H3A1,1,0,0,0,2,3V11.59l6.29-6.3a1,1,0,0,1,1.42,0L13,8.59l2.291-2.3A1.009,1.009,0,0,1,16,5.994Z" fill="#919191"/>
      <circle id="Oval" cx="1" cy="1" r="1" transform="translate(13 3)" fill="#919191"/>
    </g>
  </g>
</svg>
