<svg id="Group_315" data-name="Group 315" xmlns="http://www.w3.org/2000/svg" xmlns:xlink="http://www.w3.org/1999/xlink" width="64.37" height="72.845" viewBox="0 0 64.37 72.845">
  <defs>
    <clipPath id="clip-path">
      <path id="Path_11838" data-name="Path 11838" d="M0,15.629H64.37V-57.216H0Z" transform="translate(0 57.216)" fill="#baa566"/>
    </clipPath>
  </defs>
  <g id="Group_314" data-name="Group 314" transform="translate(0 0)" clip-path="url(#clip-path)">
    <g id="Group_305" data-name="Group 305" transform="translate(7.01 4.037)">
      <path id="Path_11829" data-name="Path 11829" d="M10.171,5.053A23.654,23.654,0,0,0-13.532-18.5a23.654,23.654,0,0,0-23.7,23.551A23.562,23.562,0,0,0-24.179,26.091v3.977l-.325-.131a3.616,3.616,0,0,0-3.384.325A3.577,3.577,0,0,0-29.5,33.248v13.1a3.977,3.977,0,0,0,3.986,3.96H-1.553a3.977,3.977,0,0,0,3.985-3.96V39.376H3.765A13.488,13.488,0,0,0,17.281,25.947V14.489a4.275,4.275,0,1,0-2.863,0V25.947A10.631,10.631,0,0,1,3.765,36.53H2.432V33.248A3.574,3.574,0,0,0,.822,30.261a3.613,3.613,0,0,0-3.383-.325c-.108.045-.216.087-.326.131V26.091A23.56,23.56,0,0,0,10.171,5.053m5.677,4.032a1.4,1.4,0,1,1-1.411,1.4,1.408,1.408,0,0,1,1.411-1.4m-50.22-4.032A20.8,20.8,0,0,1-13.532-15.652,20.8,20.8,0,0,1,7.308,5.053,20.691,20.691,0,0,1-2.886,22.846,20.982,20.982,0,0,1-5.75,24.26a20.838,20.838,0,0,1-7.783,1.5,20.827,20.827,0,0,1-7.782-1.5,21,21,0,0,1-2.865-1.413A20.692,20.692,0,0,1-34.371,5.053M-1.456,32.562a.723.723,0,0,1,.691.067.734.734,0,0,1,.334.617v13.1a1.119,1.119,0,0,1-1.122,1.114H-25.51a1.119,1.119,0,0,1-1.122-1.114v-13.1a.733.733,0,0,1,.332-.617.744.744,0,0,1,.407-.126.751.751,0,0,1,.285.059c.472.2.948.381,1.428.554q1.413.506,2.865.875a31.482,31.482,0,0,0,7.782.968A31.5,31.5,0,0,0-5.75,33.99q1.449-.369,2.863-.875c.48-.173.956-.356,1.43-.554M-5.75,31.043a28.58,28.58,0,0,1-7.783,1.069,28.571,28.571,0,0,1-7.782-1.069V27.3a23.746,23.746,0,0,0,7.782,1.3A23.72,23.72,0,0,0-5.75,27.3Z" transform="translate(37.236 18.498)" fill="#baa566"/>
    </g>
    <g id="Group_306" data-name="Group 306" transform="translate(0 0.001)">
      <path id="Path_11830" data-name="Path 11830" d="M3.7.031A30.736,30.736,0,0,0-8.76,11.086a30.274,30.274,0,0,0-4.8,16.388A1.427,1.427,0,0,0-12.129,28.9,1.428,1.428,0,0,0-10.7,27.474,27.487,27.487,0,0,1,4.959,2.589a1.419,1.419,0,0,0,.659-1.9A1.437,1.437,0,0,0,3.7.031" transform="translate(13.56 0.113)" fill="#baa566"/>
    </g>
    <g id="Group_307" data-name="Group 307" transform="translate(34.176 10.886)">
      <path id="Path_11831" data-name="Path 11831" d="M.207.594a15.414,15.414,0,0,1,10.44,14.561,1.432,1.432,0,0,0,2.865,0A18.266,18.266,0,0,0,1.142-2.1a1.435,1.435,0,0,0-1.821.881A1.42,1.42,0,0,0,.207.594" transform="translate(0.758 2.174)" fill="#baa566"/>
    </g>
    <g id="Group_308" data-name="Group 308" transform="translate(24.09 21.005)">
      <path id="Path_11832" data-name="Path 11832" d="M1.421,2.824A6.611,6.611,0,0,0,8.045-3.758,6.611,6.611,0,0,0,1.421-10.34,6.611,6.611,0,0,0-5.2-3.758,6.611,6.611,0,0,0,1.421,2.824m0-10.319A3.753,3.753,0,0,1,5.182-3.758,3.753,3.753,0,0,1,1.421-.021,3.753,3.753,0,0,1-2.34-3.758,3.753,3.753,0,0,1,1.421-7.494" transform="translate(5.203 10.34)" fill="#baa566"/>
    </g>
    <g id="Group_309" data-name="Group 309" transform="translate(19.989 65.919)">
      <path id="Path_11833" data-name="Path 11833" d="M.591.188A1.454,1.454,0,0,0,.46-.056,1.4,1.4,0,0,0,.281-.273a1.453,1.453,0,0,0-1.294-.39,1.5,1.5,0,0,0-.267.08,1.53,1.53,0,0,0-.247.131,1.562,1.562,0,0,0-.218.178,1.333,1.333,0,0,0-.178.216,1.454,1.454,0,0,0-.131.244,1.454,1.454,0,0,0-.081.266,1.381,1.381,0,0,0-.028.279,1.36,1.36,0,0,0,.028.278,1.4,1.4,0,0,0,.081.266,1.418,1.418,0,0,0,.131.246,1.333,1.333,0,0,0,.178.216,1.468,1.468,0,0,0,.218.177,1.429,1.429,0,0,0,.247.13,1.408,1.408,0,0,0,.267.081,1.408,1.408,0,0,0,.281.029A1.446,1.446,0,0,0,.281,1.739,1.4,1.4,0,0,0,.46,1.523a1.418,1.418,0,0,0,.131-.246,1.494,1.494,0,0,0,.081-.266A1.358,1.358,0,0,0,.7.733,1.379,1.379,0,0,0,.672.454,1.561,1.561,0,0,0,.591.188" transform="translate(2.163 0.689)" fill="#baa566"/>
    </g>
    <g id="Group_310" data-name="Group 310" transform="translate(38.576 65.92)">
      <path id="Path_11834" data-name="Path 11834" d="M.562.136A1.443,1.443,0,0,0,.385-.081,1.64,1.64,0,0,0,.168-.259a1.437,1.437,0,0,0-.248-.13,1.378,1.378,0,0,0-.267-.08,1.43,1.43,0,0,0-.56,0,1.433,1.433,0,0,0-.267.08,1.472,1.472,0,0,0-.247.13,1.562,1.562,0,0,0-.218.178,1.369,1.369,0,0,0-.177.216A1.374,1.374,0,0,0-1.95.38a1.454,1.454,0,0,0-.081.266,1.49,1.49,0,0,0-.028.279,1.445,1.445,0,0,0,.028.278,1.369,1.369,0,0,0,.081.266,1.342,1.342,0,0,0,.132.246,1.263,1.263,0,0,0,.177.216,1.323,1.323,0,0,0,.218.177,1.478,1.478,0,0,0,.247.131,1.433,1.433,0,0,0,.267.08,1.4,1.4,0,0,0,.28.029,1.386,1.386,0,0,0,.28-.029,1.378,1.378,0,0,0,.267-.08,1.442,1.442,0,0,0,.248-.131,1.379,1.379,0,0,0,.218-.177,1.326,1.326,0,0,0,.177-.216,1.418,1.418,0,0,0,.131-.246A1.372,1.372,0,0,0,.776,1.2,1.445,1.445,0,0,0,.8.925,1.49,1.49,0,0,0,.776.646,1.459,1.459,0,0,0,.694.38,1.454,1.454,0,0,0,.562.136" transform="translate(2.059 0.497)" fill="#baa566"/>
    </g>
    <g id="Group_311" data-name="Group 311" transform="translate(27.202 59.065)">
      <path id="Path_11835" data-name="Path 11835" d="M.307.611H4.467A1.427,1.427,0,0,0,5.894-.717c0-.032.005-.062.005-.094A1.428,1.428,0,0,0,4.467-2.235H.307A1.428,1.428,0,0,0-1.125-.812c0,.032,0,.062.005.094A1.427,1.427,0,0,0,.307.611" transform="translate(1.125 2.235)" fill="#baa566"/>
    </g>
    <g id="Group_312" data-name="Group 312" transform="translate(25.491 63.983)">
      <path id="Path_11836" data-name="Path 11836" d="M1.934,0H-5.648A1.427,1.427,0,0,0-7.08,1.422,1.427,1.427,0,0,0-5.648,2.846H1.934A1.423,1.423,0,1,0,1.934,0" transform="translate(7.08)" fill="#baa566"/>
    </g>
    <g id="Group_313" data-name="Group 313" transform="translate(28.65 9.97)">
      <path id="Path_11837" data-name="Path 11837" d="M.137.559A1.542,1.542,0,0,0,.385.69,1.381,1.381,0,0,0,.652.771,1.479,1.479,0,0,0,.931.8,1.5,1.5,0,0,0,1.212.771,1.408,1.408,0,0,0,1.48.69,1.6,1.6,0,0,0,1.728.559,1.369,1.369,0,0,0,1.944.382a1.423,1.423,0,0,0,.42-1.006A1.466,1.466,0,0,0,2.337-.9a1.388,1.388,0,0,0-.083-.265,1.43,1.43,0,0,0-.131-.247,1.452,1.452,0,0,0-.178-.216,1.435,1.435,0,0,0-.216-.176,1.6,1.6,0,0,0-.248-.131,1.408,1.408,0,0,0-.267-.081,1.43,1.43,0,0,0-.56,0,1.381,1.381,0,0,0-.267.081,1.542,1.542,0,0,0-.248.131,1.445,1.445,0,0,0-.218.176,1.369,1.369,0,0,0-.177.216,1.353,1.353,0,0,0-.132.247A1.481,1.481,0,0,0-.472-.9,1.369,1.369,0,0,0-.5-.624,1.427,1.427,0,0,0-.081.382,1.379,1.379,0,0,0,.137.559" transform="translate(0.5 2.046)" fill="#baa566"/>
    </g>
  </g>
</svg>
