<svg xmlns="http://www.w3.org/2000/svg" xmlns:xlink="http://www.w3.org/1999/xlink" width="54.105" height="76.364" viewBox="0 0 54.105 76.364">
  <defs>
    <clipPath id="clip-path">
      <path id="Path_11827" data-name="Path 11827" d="M0,16.384H54.105V-59.98H0Z" transform="translate(0 59.98)" fill="none"/>
    </clipPath>
  </defs>
  <g id="Group_302" data-name="Group 302" transform="translate(0 0)" clip-path="url(#clip-path)">
    <path id="Path_11826" data-name="Path 11826" d="M52.947,15.224H35.78V-59.23H52.947Zm0,0H.75v-29h52.2ZM35.778-1.089H.75V-13.772H35.778ZM47.827.726H41.283a1,1,0,0,0-.963,1.039v13.46H48.79V1.764A1,1,0,0,0,47.827.726Zm-5.935-54.75v8.1M8.015,1.361V11.909m0-21.1v3.3m7.072,7.253V11.909m0-21.1v3.3m7.072,7.253V11.909m0-21.1v3.3m7.072,7.253V11.909m0-21.1v3.3M47.306-54.024v8.1m-5.413,4.615v8.1m5.413-8.1v8.1m-5.413,4.615v8.1m5.413-8.1v8.1M10.227-29.129a3.184,3.184,0,0,1-3.057,3.3,3.184,3.184,0,0,1-3.056-3.3,3.183,3.183,0,0,1,3.056-3.3A3.183,3.183,0,0,1,10.227-29.129Zm.611,7.347a3.82,3.82,0,0,1-3.668,3.956A3.82,3.82,0,0,1,3.5-21.781a3.82,3.82,0,0,1,3.667-3.956A3.82,3.82,0,0,1,10.838-21.781ZM7.171-14.308v-3.518M30.756-31.594a2.9,2.9,0,0,1-2.782,3,2.9,2.9,0,0,1-2.782-3,2.9,2.9,0,0,1,2.782-3A2.9,2.9,0,0,1,30.756-31.594ZM32.5-23.209a4.715,4.715,0,0,1-4.527,4.884,4.715,4.715,0,0,1-4.527-4.884,4.716,4.716,0,0,1,4.527-4.885A4.716,4.716,0,0,1,32.5-23.209Zm-4.527,8.9v-3.518M17.619-14.308v-3.518m0-12.556L15.7-18.7h3.842Z" transform="translate(0.205 60.185)" fill="none" stroke="#baa566" stroke-linecap="round" stroke-linejoin="round" stroke-width="1.5"/>
  </g>
</svg>
