<svg id="Group_293" data-name="Group 293" xmlns="http://www.w3.org/2000/svg" width="40.92" height="40.919" viewBox="0 0 40.92 40.919">
  <g id="Group_292" data-name="Group 292" transform="translate(0 0)">
    <path id="Path_11798" data-name="Path 11798" d="M3238.921,514.371h39.438a.74.74,0,0,1,.741.74v11.124a.74.74,0,0,1-1.48,0v-3.826l-4.016,4.016,4.016,4.015v-1.786a.74.74,0,1,1,1.48,0v25.9a.741.741,0,0,1-.741.741h-39.438a.741.741,0,0,1-.741-.741V515.111A.74.74,0,0,1,3238.921,514.371Zm1.929,1.481,3.873,3.873,3.875-3.873Zm11.161,0,3.875,3.873,3.874-3.873Zm2.71,7.133a.74.74,0,0,1-1.047-1.047l1.164-1.165-4.533-4.533-10.185,10.185,4.534,4.533,7.342-7.342a.74.74,0,0,1,1.047,1.047l-1.761,1.762,4.533,4.533L3266,520.772l-4.533-4.533Zm2.141,9.02,10.185,10.185,4.533-4.534-10.185-10.185Zm6.311-16.153,3.874,3.873,3.874-3.873Zm14.447,0h-3.286l3.286,3.286Zm-.459,4.921-4.533-4.533-10.185,10.185,4.534,4.533Zm.459,11.76-.006,0-5.057-5.058L3268.023,532l9.6,9.6Zm0,12.34-4.016,4.016,4.016,4.015Zm-1.188,8.937-3.875-3.874-3.874,3.874Zm.729-10.572-4.533-4.534-10.185,10.185,4.534,4.533Zm-11.891,10.572-3.875-3.874-3.874,3.874Zm.73-10.573-4.534-4.533-10.185,10.185,4.533,4.533Zm-11.892,10.573-3.874-3.874-3.875,3.874Zm.73-10.573-1.5-1.5a.74.74,0,0,1,1.048-1.047l1.5,1.5,4.533-4.534-10.185-10.185L3245.7,532l7.2,7.2a.74.74,0,0,1-1.046,1.047L3250.3,538.7l-10.185,10.185,4.533,4.533Zm-15.177,10.573h3.285l-3.285-3.286v3.286Zm0-6.557,4.015-4.015-4.015-4.017Zm.006-10.12,5.056,5.058,4.534-4.534-9.6-9.6v9.067h0Zm-.007-12.345,4.016-4.015-4.016-4.016Z" transform="translate(-3238.18 -514.371)" fill="#baa566"/>
  </g>
</svg>
