<svg id="Group_291" data-name="Group 291" xmlns="http://www.w3.org/2000/svg" width="40.92" height="29.138" viewBox="0 0 40.92 29.138">
  <g id="Group_290" data-name="Group 290" transform="translate(0 0)">
    <path id="Path_11797" data-name="Path 11797" d="M3238.863,454.274h4.067a.683.683,0,0,1,.683.683v3.815a4.49,4.49,0,0,1,3.142-1.28h10.037c-.2-.321-.4-.647-.588-.98a.681.681,0,0,1,0-.669,19.661,19.661,0,0,1,7.6-7.6.683.683,0,0,1,.67,0,19.661,19.661,0,0,1,7.6,7.6.686.686,0,0,1,0,.669c-.205.364-.421.723-.646,1.071a4.5,4.5,0,0,1,2.237,1.189V445.13a.684.684,0,0,1,.683-.683h4.068a.684.684,0,0,1,.683.683v3.2a.683.683,0,1,1-1.366,0v-2.521h-2.7v26.4h2.7V450.885a.683.683,0,1,1,1.366,0V472.9a.684.684,0,0,1-.683.683h-4.068a.684.684,0,0,1-.683-.683V470.64h-30.052V472.9a.684.684,0,0,1-.683.683h-4.067a.684.684,0,0,1-.683-.683V454.957A.683.683,0,0,1,3238.863,454.274Zm25.277-4.649a18.275,18.275,0,0,0-6.552,6.551q.4.679.849,1.315h11.405c.3-.423.583-.863.849-1.315A18.275,18.275,0,0,0,3264.14,449.625Zm-20.526,19.648h30.052v-6.488h-24.214a.683.683,0,1,1,0-1.366h24.161a3.148,3.148,0,0,0-3.088-2.562h-23.768a3.148,3.148,0,0,0-3.088,2.562h3.506a.683.683,0,1,1,0,1.366h-3.56v6.488Zm-4.067,2.945h2.7V455.64h-2.7Z" transform="translate(-3238.18 -444.447)" fill="#baa566"/>
  </g>
</svg>
