<svg xmlns="http://www.w3.org/2000/svg" width="31.623" height="40.919" viewBox="0 0 31.623 40.919">
  <g id="Group_269" data-name="Group 269" transform="translate(0)">
    <g id="Group_256" data-name="Group 256" transform="translate(0)">
      <g id="Group_255" data-name="Group 255">
        <path id="Path_11773" data-name="Path 11773" d="M3244.66,822.5h30.023a.8.8,0,0,1,.8.8v36.089a.8.8,0,0,1-.8.8h-.51q.015.147.015.3a2.936,2.936,0,1,1-5.873,0,2.859,2.859,0,0,1,.015-.3h-17.318q.015.147.015.3a2.936,2.936,0,1,1-5.873,0q0-.15.015-.3h-.51a.8.8,0,0,1-.8-.8V823.3A.8.8,0,0,1,3244.66,822.5Zm26.592,39.321a1.337,1.337,0,0,0,1.3-1.635h-2.609a1.337,1.337,0,0,0,1.3,1.635Zm-10.78-3.233h13.413v-7.769h-13.413Zm0-9.367h13.413V824.1h-13.413Zm-12.38,12.6a1.337,1.337,0,0,0,1.3-1.635h-2.61a1.407,1.407,0,0,0-.033.3A1.34,1.34,0,0,0,3248.091,861.819Zm-2.633-3.233h13.414V833.464h-13.414v25.121Zm13.414-26.721V824.1h-13.414v7.769Z" transform="translate(-3243.86 -822.498)" fill="#baa566"/>
      </g>
    </g>
    <g id="Group_258" data-name="Group 258" transform="translate(6.343 3.316)">
      <g id="Group_257" data-name="Group 257">
        <path id="Path_11774" data-name="Path 11774" d="M3270.764,826.55h2.318a.8.8,0,0,1,0,1.6h-2.318a.8.8,0,0,1,0-1.6Z" transform="translate(-3269.965 -826.55)" fill="#baa566"/>
      </g>
    </g>
    <g id="Group_260" data-name="Group 260" transform="translate(21.365 32.772)">
      <g id="Group_259" data-name="Group 259">
        <path id="Path_11775" data-name="Path 11775" d="M3252.41,862.542h2.318a.8.8,0,0,1,0,1.6h-2.318a.8.8,0,1,1,0-1.6Z" transform="translate(-3251.61 -862.542)" fill="#baa566"/>
      </g>
    </g>
    <g id="Group_262" data-name="Group 262" transform="translate(11.734 18.381)">
      <g id="Group_261" data-name="Group 261">
        <path id="Path_11776" data-name="Path 11776" d="M3266.225,845.6a.8.8,0,0,1,.046-.15.814.814,0,0,1,.074-.138.833.833,0,0,1,.1-.121.746.746,0,0,1,.121-.1.8.8,0,0,1,.288-.12.806.806,0,0,1,.721.219.756.756,0,0,1,.1.121.869.869,0,0,1,.074.138.8.8,0,0,1,.045.15.765.765,0,0,1,.016.156.78.78,0,0,1-.016.157.783.783,0,0,1-.119.286.729.729,0,0,1-.1.122.8.8,0,0,1-.565.234.767.767,0,0,1-.156-.016.822.822,0,0,1-.151-.045.891.891,0,0,1-.137-.074.806.806,0,0,1-.221-.222.776.776,0,0,1-.074-.138.824.824,0,0,1-.046-.149.778.778,0,0,1-.015-.157A.832.832,0,0,1,3266.225,845.6Z" transform="translate(-3266.21 -844.958)" fill="#baa566"/>
      </g>
    </g>
    <g id="Group_264" data-name="Group 264" transform="translate(11.733 21.358)">
      <g id="Group_263" data-name="Group 263">
        <path id="Path_11777" data-name="Path 11777" d="M3267.01,848.6a.8.8,0,0,1,.8.8v7.036a.8.8,0,0,1-1.6,0V849.4A.8.8,0,0,1,3267.01,848.6Z" transform="translate(-3266.21 -848.596)" fill="#baa566"/>
      </g>
    </g>
    <g id="Group_266" data-name="Group 266" transform="translate(18.292 7.692)">
      <g id="Group_265" data-name="Group 265">
        <path id="Path_11778" data-name="Path 11778" d="M3258.213,832.54a.751.751,0,0,1,.045-.149.817.817,0,0,1,.073-.138.773.773,0,0,1,.1-.122.747.747,0,0,1,.122-.1.841.841,0,0,1,.138-.074.852.852,0,0,1,.149-.046.8.8,0,0,1,.312,0,.8.8,0,0,1,.288.12.739.739,0,0,1,.121.1.8.8,0,0,1,.1.122.754.754,0,0,1,.074.138.788.788,0,0,1,.046.149.837.837,0,0,1,0,.312.8.8,0,0,1-.046.15.723.723,0,0,1-.074.138.842.842,0,0,1-.1.121.752.752,0,0,1-.121.1.82.82,0,0,1-.138.074.75.75,0,0,1-.15.046.824.824,0,0,1-.156.016.833.833,0,0,1-.156-.016.727.727,0,0,1-.149-.046.788.788,0,0,1-.138-.074.759.759,0,0,1-.122-.1.808.808,0,0,1-.1-.121.849.849,0,0,1-.073-.138.8.8,0,0,1-.045-.15.741.741,0,0,1,0-.312Z" transform="translate(-3258.197 -831.897)" fill="#baa566"/>
      </g>
    </g>
    <g id="Group_268" data-name="Group 268" transform="translate(18.292 10.67)">
      <g id="Group_267" data-name="Group 267">
        <path id="Path_11779" data-name="Path 11779" d="M3259,835.536a.8.8,0,0,1,.8.8v7.037a.8.8,0,0,1-1.6,0v-7.037A.8.8,0,0,1,3259,835.536Z" transform="translate(-3258.197 -835.536)" fill="#baa566"/>
      </g>
    </g>
  </g>
</svg>
