<svg id="Group_236" data-name="Group 236" xmlns="http://www.w3.org/2000/svg" width="40.92" height="40.941" viewBox="0 0 40.92 40.941">
  <g id="Group_229" data-name="Group 229" transform="translate(0 0.022)">
    <g id="Group_228" data-name="Group 228">
      <path id="Path_11761" data-name="Path 11761" d="M3248.563,363.858a.7.7,0,0,1-.7-.695l-.009-2.194a.7.7,0,0,1,.7-.7l31.54-.122a.7.7,0,0,1,.7.694l.122,31.54a.7.7,0,0,1-.694.7l-31.54.123a.7.7,0,0,1-.7-.695l-.1-27.022a.7.7,0,0,1,1.394-.006l.047,11.942,2.768-.011a.7.7,0,0,1,.006,1.394l-2.769.011.051,12.99,19.913-.077-.013-3.373a.7.7,0,1,1,1.394,0l.013,3.372,8.84-.034-.117-30.146-8.839.034.084,21.756a.7.7,0,0,1-1.395,0l-.018-4.6-12.405.047a.7.7,0,0,1-.006-1.394l12.406-.048-.061-15.761-19.913.077.006,1.5A.7.7,0,0,1,3248.563,363.858Z" transform="translate(-3247.854 -360.147)" fill="#baa566"/>
    </g>
  </g>
  <g id="Group_231" data-name="Group 231" transform="translate(34.833 0)">
    <g id="Group_230" data-name="Group 230">
      <path id="Path_11762" data-name="Path 11762" d="M3238.333,364.154l2.285-3.7a.7.7,0,0,1,1.184,0l2.314,3.684a.7.7,0,0,1-.588,1.068l-1.6.007.011,2.914a.7.7,0,1,1-1.394,0l-.012-2.914-1.6.007a.7.7,0,0,1-.6-1.063Zm3.935-.344-1.052-1.674-1.038,1.683Z" transform="translate(-3238.229 -360.12)" fill="#baa566"/>
    </g>
  </g>
  <g id="Group_233" data-name="Group 233" transform="translate(34.926 9.106)">
    <g id="Group_232" data-name="Group 232">
      <path id="Path_11763" data-name="Path 11763" d="M3238.2,390.37a.7.7,0,0,1,.608-.361l1.6-.007-.07-17.986a.7.7,0,1,1,1.394,0l.069,17.986,1.6-.007a.7.7,0,0,1,.6,1.063l-2.286,3.7a.7.7,0,0,1-1.184,0l-2.314-3.685A.7.7,0,0,1,3238.2,390.37Zm2.92,2.7,1.039-1.683-2.09.008Z" transform="translate(-3238.115 -371.317)" fill="#baa566"/>
    </g>
  </g>
  <g id="Group_235" data-name="Group 235" transform="translate(0.145 34.854)">
    <g id="Group_234" data-name="Group 234">
      <path id="Path_11764" data-name="Path 11764" d="M3248.153,405.355l3.685-2.314a.7.7,0,0,1,1.067.588l.007,1.6,22.759-.088-.006-1.6a.7.7,0,0,1,1.062-.6l3.7,2.286a.7.7,0,0,1,0,1.183l-3.684,2.314a.7.7,0,0,1-1.068-.588l-.006-1.6-22.759.088.006,1.6a.7.7,0,0,1-1.063.6l-3.7-2.285a.7.7,0,0,1,0-1.183Zm28.919,1.525,1.674-1.052-1.682-1.039Zm-25.547.1-.008-2.089-1.674,1.052Z" transform="translate(-3247.827 -402.84)" fill="#baa566"/>
    </g>
  </g>
</svg>
