<svg xmlns="http://www.w3.org/2000/svg" width="26.642" height="40.92" viewBox="0 0 26.642 40.92">
  <g id="Group_241" data-name="Group 241" transform="translate(0)">
    <g id="Group_238" data-name="Group 238" transform="translate(14.407 21.215)">
      <g id="Group_237" data-name="Group 237">
        <path id="Path_11765" data-name="Path 11765" d="M3257.885,617.271h2.414a.706.706,0,0,1,0,1.413h-2.414a.706.706,0,0,1,0-1.413Z" transform="translate(-3257.179 -617.271)" fill="#baa566"/>
      </g>
    </g>
    <g id="Group_240" data-name="Group 240" transform="translate(0)">
      <g id="Group_239" data-name="Group 239">
        <path id="Path_11766" data-name="Path 11766" d="M3247.61,593.4h10.414v-1.344a.705.705,0,0,1,.888-.682l14.109,3.762a.707.707,0,0,1,.524.683v2.28a.706.706,0,0,1-1.412,0v-1.738l-12.7-3.386V630.7l12.7-2.54V600.476a.706.706,0,0,1,1.412,0V628.74a.706.706,0,0,1-.568.692l-14.11,2.822a.714.714,0,0,1-.138.014.706.706,0,0,1-.705-.706v-1.344h-6.506a.706.706,0,1,1,0-1.412h6.506v-2.014h-6.988a.706.706,0,0,1-.706-.706V597.53a.706.706,0,0,1,.706-.706h6.988V594.81h-9.708v34h1.007a.706.706,0,1,1,0,1.412h-1.713a.706.706,0,0,1-.706-.706V594.1A.706.706,0,0,1,3247.61,593.4Zm4.132,4.838V625.38h6.282V598.236Z" transform="translate(-3246.903 -591.348)" fill="#baa566"/>
      </g>
    </g>
  </g>
</svg>
