<svg xmlns="http://www.w3.org/2000/svg" width="40.92" height="40.919" viewBox="0 0 40.92 40.919">
  <g id="Group_272" data-name="Group 272" transform="translate(0)">
    <g id="Group_271" data-name="Group 271" transform="translate(0 0)">
      <g id="Group_270" data-name="Group 270">
        <path id="Path_11780" data-name="Path 11780" d="M3251.154,934.586h-1.7a.852.852,0,1,1,0-1.7h1.7a.852.852,0,1,1,0,1.7Z" transform="translate(-3219.611 -905.602)" fill="#baa566"/>
        <path id="Path_11781" data-name="Path 11781" d="M3276.154,934.586h-1.7a.852.852,0,1,1,0-1.7h1.7a.852.852,0,1,1,0,1.7Z" transform="translate(-3265.071 -905.602)" fill="#baa566"/>
        <path id="Path_11782" data-name="Path 11782" d="M3263.654,934.586h-1.7a.852.852,0,1,1,0-1.7h1.7a.852.852,0,1,1,0,1.7Z" transform="translate(-3242.341 -905.602)" fill="#baa566"/>
        <path id="Path_11783" data-name="Path 11783" d="M3276.92,914.893h-35.8a.852.852,0,0,1-.853-.853V902.105a.852.852,0,0,1,.853-.853H3252.2V900.4a.852.852,0,0,1,.852-.852h11.936a.852.852,0,0,1,.853.852v.853h11.082a.852.852,0,0,1,.853.853V914.04A.852.852,0,0,1,3276.92,914.893ZM3252.2,902.957h-10.229v10.23H3252.2Zm11.935-1.7H3253.9v11.935h10.23Zm11.935,1.7h-10.23v10.23h10.23Z" transform="translate(-3238.558 -899.548)" fill="#baa566"/>
        <path id="Path_11784" data-name="Path 11784" d="M3239.033,928.714h39.214a.853.853,0,1,1,0,1.706h-.852v12.787a.852.852,0,0,1-.853.852h-.853v.853a.852.852,0,1,1-1.7,0v-.853h-30.69v.853a.852.852,0,1,1-1.7,0v-.853h-.853a.852.852,0,0,1-.853-.853V930.419h-.852a.853.853,0,1,1,0-1.706Zm26.427,13.64h10.23V930.419h-10.23Zm-11.935,0h10.23V930.419h-10.23Zm-11.935,0h10.23V930.419h-10.23Z" transform="translate(-3238.18 -904.845)" fill="#baa566"/>
        <path id="Path_11785" data-name="Path 11785" d="M3249.449,912.048h1.706a.852.852,0,0,1,0,1.7h-1.706a.852.852,0,0,1,0-1.7Z" transform="translate(-3219.612 -901.818)" fill="#baa566"/>
        <path id="Path_11786" data-name="Path 11786" d="M3274.449,912.048h1.706a.852.852,0,0,1,0,1.7h-1.706a.852.852,0,0,1,0-1.7Z" transform="translate(-3265.072 -901.818)" fill="#baa566"/>
        <path id="Path_11787" data-name="Path 11787" d="M3261.949,912.048h1.706a.852.852,0,0,1,0,1.7h-1.706a.852.852,0,0,1,0-1.7Z" transform="translate(-3242.342 -901.818)" fill="#baa566"/>
      </g>
    </g>
  </g>
</svg>
