<svg id="Group_297" data-name="Group 297" xmlns="http://www.w3.org/2000/svg" width="63.658" height="50.926" viewBox="0 0 63.658 50.926">
  <path id="Path_11810" data-name="Path 11810" d="M1692.99-351.556v-4.427a3.182,3.182,0,0,0,4.062-1.938,3.183,3.183,0,0,0,.183-1.063v-4.243h1.061a3.187,3.187,0,0,0,3.183-3.183v-2.122a3.187,3.187,0,0,0-3.183-3.183h-1.061v-4.243a3.184,3.184,0,0,0-3.182-3.183,3.186,3.186,0,0,0-1.063.182v-4.425a3.186,3.186,0,0,0-3.183-3.183h-2.121a3.186,3.186,0,0,0-3.183,3.183v11.67h-3.366a3.18,3.18,0,0,0-4.056-1.94c-.04.014-.078.029-.117.045a3.178,3.178,0,0,0-3.9-2.236,2.924,2.924,0,0,0-.343.113,3.18,3.18,0,0,0-3.9-2.236,3.2,3.2,0,0,0-1.291.7,3.181,3.181,0,0,0-4.491.243,3.18,3.18,0,0,0-.812,2.126v1.062h-1.062a3.185,3.185,0,0,0-3,2.121H1654.8v-11.67a3.186,3.186,0,0,0-3.183-3.183h-2.121a3.186,3.186,0,0,0-3.183,3.183v4.425a3.182,3.182,0,0,0-4.061,1.938,3.183,3.183,0,0,0-.184,1.063v4.243H1641a3.187,3.187,0,0,0-3.183,3.183v2.122a3.186,3.186,0,0,0,3.183,3.183h1.061v4.243a3.181,3.181,0,0,0,3.182,3.183,3.157,3.157,0,0,0,1.063-.182v4.427a3.187,3.187,0,0,0,3.183,3.183h2.121a3.187,3.187,0,0,0,3.183-3.183v-11.671h3.183v3.183a1.059,1.059,0,0,0,.178.588l4.067,6.1V-336.7a1.061,1.061,0,0,0,1.06,1.062h14.854a1.061,1.061,0,0,0,1.06-1.062v-16.8l2.068-6.2a1.074,1.074,0,0,0,.055-.336v-3.183h3.183v11.671a3.186,3.186,0,0,0,3.183,3.183h2.121A3.186,3.186,0,0,0,1692.99-351.556Zm4.245-18.037h1.061a1.061,1.061,0,0,1,1.061,1.06v2.122a1.061,1.061,0,0,1-1.061,1.06h-1.061Zm-4.245-6.366a1.061,1.061,0,0,1,1.062-1.061,1.06,1.06,0,0,1,1.06,1.061v16.975a1.061,1.061,0,0,1-1.06,1.062,1.061,1.061,0,0,1-1.062-1.062Zm-50.926,10.609H1641a1.061,1.061,0,0,1-1.06-1.06v-2.122a1.061,1.061,0,0,1,1.06-1.06h1.061Zm4.245,6.366a1.064,1.064,0,0,1-1.062,1.062,1.063,1.063,0,0,1-1.061-1.062v-16.975a1.061,1.061,0,0,1,1.061-1.061,1.062,1.062,0,0,1,1.062,1.061Zm6.366,7.428a1.063,1.063,0,0,1-1.062,1.061h-2.121a1.062,1.062,0,0,1-1.062-1.061v-31.829a1.064,1.064,0,0,1,1.062-1.062h2.121a1.065,1.065,0,0,1,1.062,1.062Zm5.3-13.793H1654.8v-4.243h3.183Zm14.854-7.426a1.061,1.061,0,0,1,1.061-1.061,1.062,1.062,0,0,1,1.062,1.061v6.366a1.062,1.062,0,0,1-1.062,1.06,1.061,1.061,0,0,1-1.061-1.06Zm-4.243-2.122a1.061,1.061,0,0,1,1.061-1.06,1.061,1.061,0,0,1,1.061,1.06v8.488a1.061,1.061,0,0,1-1.061,1.06,1.061,1.061,0,0,1-1.061-1.06Zm-4.245,0a1.061,1.061,0,0,1,1.062-1.06,1.06,1.06,0,0,1,1.06,1.06v1.062h-2.122Zm14.854,14.682-2.068,6.2a1.072,1.072,0,0,0-.055.335v15.914h-12.732V-350.5h3.183a1.062,1.062,0,0,0,1.062-1.061,1.062,1.062,0,0,0-1.062-1.062h-3.183v-1.06a1.064,1.064,0,0,0-.178-.588l-4.065-6.1v-10.288a1.063,1.063,0,0,1,1.061-1.062h5.305v1.062a1.061,1.061,0,0,1-1.06,1.061h-2.123a1.061,1.061,0,0,0-1.06,1.06v4.245a1.061,1.061,0,0,0,1.06,1.061,5.312,5.312,0,0,1,5.305,5.305,1.061,1.061,0,0,0,1.061,1.061,1.061,1.061,0,0,0,1.061-1.061,7.4,7.4,0,0,0-2.236-5.305H1679.2Zm-12.732-7.438v1.244a1.06,1.06,0,0,1-1.06,1.06,1.061,1.061,0,0,1-1.062-1.06v-1.061h1.062A3.169,3.169,0,0,0,1666.466-367.654Zm12.732,1.244a1.061,1.061,0,0,1-1.06,1.06,1.061,1.061,0,0,1-1.062-1.06v-4.243a1.064,1.064,0,0,1,1.062-1.062,1.063,1.063,0,0,1,1.06,1.062Zm5.305,1.06h-3.366a3.162,3.162,0,0,0,.184-1.06v-3.183h3.183Zm2.121,13.793v-31.829a1.065,1.065,0,0,1,1.062-1.062h2.121a1.065,1.065,0,0,1,1.062,1.062v31.829a1.063,1.063,0,0,1-1.062,1.061h-2.121A1.063,1.063,0,0,1,1686.624-351.556Z" transform="translate(-1637.82 386.568)" fill="#baa566"/>
</svg>
