<svg id="Group_318" data-name="Group 318" xmlns="http://www.w3.org/2000/svg" xmlns:xlink="http://www.w3.org/1999/xlink" width="88.462" height="57.292" viewBox="0 0 88.462 57.292">
  <defs>
    <clipPath id="clip-path">
      <path id="Path_11840" data-name="Path 11840" d="M0,14.236H88.462V-43.056H0Z" transform="translate(0 43.056)" fill="#baa566"/>
    </clipPath>
  </defs>
  <g id="Group_317" data-name="Group 317" transform="translate(0 0)" clip-path="url(#clip-path)">
    <g id="Group_316" data-name="Group 316" transform="translate(0 -0.001)">
      <path id="Path_11839" data-name="Path 11839" d="M5.278,7.9a.972.972,0,0,0-.982.945v4.188a19.316,19.316,0,0,0-9.4,3.812c-2.31,1.83-6.643,5.436-4.4,8.729,1.393,2.033,4.267,2.46,6.585,2.46q5.427,0,10.863-.009c3.609,0,7.207-.011,10.815-.045,2.693-.039,6.846.313,7.513-3.017.44-2.145-1.058-4.207-2.339-5.779a17.012,17.012,0,0,0-5.659-4.411,19.808,19.808,0,0,0-6.73-1.794V8.847a.964.964,0,0,0-.975-.945H9.689V5.016h1.528a.421.421,0,0,0,.22-.092.342.342,0,0,0,.125-.055.419.419,0,0,0,.065-.14c.029-.064.086-.112.086-.194V2.677a.491.491,0,0,0-.5-.471h-6.3a.481.481,0,0,0-.486.471V4.536a.487.487,0,0,0,.486.48h1.5V7.9ZM9.593,12.8H6.253v-3h3.34Zm10.853,5.622c1.548,1.267,5.082,4.6,3.639,6.817-.736,1.146-3.313.821-4.545.841-7.617.11-15.234.073-22.851.064a7.375,7.375,0,0,1-3.706-.86c-2.108-1.194-.676-3.3.526-4.624A18.9,18.9,0,0,1,7.53,14.69c4.677,0,9.233.713,12.915,3.728M6.9,4.065H5.4V3.148h5.327v.917Zm.49.951H8.707V7.9H7.389ZM28.838,28.453H-12.286a.964.964,0,0,0-.975.942v3.042a.973.973,0,0,0,.975.954H28.838a.936.936,0,0,0,.621-.232.352.352,0,0,0,.065-.055.326.326,0,0,0,.059-.067.874.874,0,0,0,.237-.6V29.4a.97.97,0,0,0-.982-.942M-7.628,31.495H-11.3V30.34H27.865v1.155ZM72.5-22.959a.961.961,0,0,0-.973-.942H60.8a.961.961,0,0,0-.973.942V-2.685a.968.968,0,0,0,.973.942H71.529a.888.888,0,0,0,.62-.232c.017-.017.047-.027.067-.045a.479.479,0,0,1,.048-.067.827.827,0,0,0,.238-.6ZM70.544-3.639h-8.77V-22.006h8.77ZM57.487-18.666h0a5.909,5.909,0,0,0-1.022-3.385c-1.2-1.74-3.17-1.868-5.136-1.832-4.84.092-9.68.435-14.492.915-2.329.224-4.657.5-6.967.9a38.4,38.4,0,0,0-5.183,1.425c-4.963,1.571-10.014,2.921-15.073,4.206C4.781-15.2-.077-14.033-4.974-13c-1.528.323-3.055.639-4.6.869-1.823.27-4.182.444-5.585,1.969a3.3,3.3,0,0,0-.2,4.05c1.567,2.081,5.184,1.951,7.513,1.814a145.6,145.6,0,0,0,16.3-1.823c2.177-.369,4.277-1.025,6.474-1.267C17.947-7.708,21-7.856,24.046-8c1.586-.082,3.17-.11,4.753-.165-.447.1-.888.222-1.335.323-2.226.526-4.45,1.035-6.7,1.452-2.154.389-5.688.777-6.31,3.293C13.975-1.16,15.873.5,17.67.809a27.593,27.593,0,0,0,6.576.418C28.131.975,32.027.672,35.913.377A74.3,74.3,0,0,0,44.466-.652c2.671-.527,5.3-1.2,7.923-1.9,1.948-.518,3.666-1.025,4.6-2.911.877-1.786.572-3.94.552-5.836Zm-1.9,11.2c-.237,2.339-2.349,2.728-4.313,3.245A74.718,74.718,0,0,1,37.963-1.679Q32.035-1.22,26.1-.8a33.006,33.006,0,0,1-8.151-.257c-1.232-.214-2.234-1.545-.937-2.359,1.548-.979,3.867-1.053,5.643-1.416,4.934-.989,9.831-2.237,14.7-3.494.41-.057.83-.149,1.222-.2,1.261-.176,2.522-.362,3.78-.538.621-.082.354-1-.257-.906-1.041.14-2.082.289-3.114.435l-.2.029a1.025,1.025,0,0,0-.076-.3,8.447,8.447,0,0,0,.9-.334,2.849,2.849,0,0,0,1.517-1.534.488.488,0,0,0-.942-.25c-.259.954-1.738,1.359-2.941,1.562-6.339.149-12.678.362-19,.805-1.633.112-3.265.251-4.887.471-1.3.188-2.55.592-3.847.853A130.394,130.394,0,0,1-6.673-6.255a33.129,33.129,0,0,1-3.81.121C-11.523-6.2-13.594-6.44-13.938-7.6c-.591-2.005,2.6-2.431,3.943-2.588A96.547,96.547,0,0,0,.238-12.213q7.874-1.8,15.684-3.92,3.734-1.012,7.437-2.118c1.832-.555,3.635-1.257,5.518-1.694,5.516-1.256,11.377-1.5,17.028-1.82,2.338-.13,4.716-.3,7.064-.222,1.756.047,2.579,1.832,2.559,3.321l.076,8.8a22.478,22.478,0,0,1-.02,2.4" transform="translate(15.962 23.901)" fill="#baa566"/>
    </g>
  </g>
</svg>
