<svg id="Group_300" data-name="Group 300" xmlns="http://www.w3.org/2000/svg" width="54.66" height="63.658" viewBox="0 0 54.66 63.658">
  <path id="Path_11816" data-name="Path 11816" d="M1695.117-140.951a.932.932,0,0,0-.932.932v27h-8.293a.932.932,0,0,0-.932.932.933.933,0,0,0,.932.933h8.293v8.2h-50.931v-8.2h8.293a.932.932,0,0,0,.932-.933.932.932,0,0,0-.932-.932h-8.293v-33.832h4.628a.932.932,0,0,0,.932-.932.933.933,0,0,0-.932-.933h-4.628v-5.7a4.218,4.218,0,0,1,4.214-4.213h42.5a4.218,4.218,0,0,1,4.213,4.213v5.7h-42.33a.933.933,0,0,0-.933.933.933.933,0,0,0,.933.932h42.33v2.859a.932.932,0,0,0,.932.933.932.932,0,0,0,.932-.933v-10.421a6.085,6.085,0,0,0-6.077-6.078h-42.5a6.085,6.085,0,0,0-6.078,6.078v51.5a6.084,6.084,0,0,0,6.078,6.078h42.5a6.085,6.085,0,0,0,6.078-6.078v-37.107A.933.933,0,0,0,1695.117-140.951ZM1689.972-98.7h-42.5a4.217,4.217,0,0,1-3.8-2.391h50.1A4.217,4.217,0,0,1,1689.972-98.7Z" transform="translate(-1641.39 160.491)" fill="#baa566"/>
  <path id="Path_11817" data-name="Path 11817" d="M1666.663-154.381a3.179,3.179,0,0,0-3.175-3.175,3.178,3.178,0,0,0-3.174,3.175,3.178,3.178,0,0,0,3.174,3.174A3.179,3.179,0,0,0,1666.663-154.381Zm-4.484,0a1.31,1.31,0,0,1,1.309-1.31,1.311,1.311,0,0,1,1.31,1.31,1.311,1.311,0,0,1-1.31,1.309A1.31,1.31,0,0,1,1662.179-154.381Z" transform="translate(-1636.221 161.293)" fill="#baa566"/>
  <path id="Path_11818" data-name="Path 11818" d="M1659.858-154.381a3.179,3.179,0,0,0-3.175-3.175,3.179,3.179,0,0,0-3.174,3.175,3.179,3.179,0,0,0,3.174,3.174A3.179,3.179,0,0,0,1659.858-154.381Zm-4.484,0a1.31,1.31,0,0,1,1.309-1.31,1.311,1.311,0,0,1,1.31,1.31,1.311,1.311,0,0,1-1.31,1.309A1.31,1.31,0,0,1,1655.374-154.381Z" transform="translate(-1638.08 161.293)" fill="#baa566"/>
  <path id="Path_11819" data-name="Path 11819" d="M1653.053-154.381a3.179,3.179,0,0,0-3.175-3.175,3.179,3.179,0,0,0-3.174,3.175,3.178,3.178,0,0,0,3.174,3.174A3.179,3.179,0,0,0,1653.053-154.381Zm-4.484,0a1.31,1.31,0,0,1,1.309-1.31,1.311,1.311,0,0,1,1.31,1.31,1.311,1.311,0,0,1-1.31,1.309A1.31,1.31,0,0,1,1648.569-154.381Z" transform="translate(-1639.938 161.293)" fill="#baa566"/>
  <path id="Path_11820" data-name="Path 11820" d="M1673.467-154.381a3.178,3.178,0,0,0-3.174-3.175,3.178,3.178,0,0,0-3.174,3.175,3.178,3.178,0,0,0,3.174,3.174A3.178,3.178,0,0,0,1673.467-154.381Zm-4.483,0a1.31,1.31,0,0,1,1.309-1.31,1.311,1.311,0,0,1,1.31,1.31,1.311,1.311,0,0,1-1.31,1.309A1.31,1.31,0,0,1,1668.984-154.381Z" transform="translate(-1634.362 161.293)" fill="#baa566"/>
  <path id="Path_11821" data-name="Path 11821" d="M1680.272-154.381a3.178,3.178,0,0,0-3.174-3.175,3.178,3.178,0,0,0-3.174,3.175,3.178,3.178,0,0,0,3.174,3.174A3.178,3.178,0,0,0,1680.272-154.381Zm-4.483,0a1.31,1.31,0,0,1,1.309-1.31,1.311,1.311,0,0,1,1.31,1.31,1.311,1.311,0,0,1-1.31,1.309A1.31,1.31,0,0,1,1675.789-154.381Z" transform="translate(-1632.503 161.293)" fill="#baa566"/>
  <path id="Path_11822" data-name="Path 11822" d="M1648.859-127.706a.935.935,0,0,0-.821,1.033,18.909,18.909,0,0,0,18.81,16.776,18.953,18.953,0,0,0,18.932-18.932,18.953,18.953,0,0,0-18.932-18.933,18.892,18.892,0,0,0-12.7,4.891,18.894,18.894,0,0,0-6.126,12.02.932.932,0,0,0,.829,1.025.932.932,0,0,0,1.026-.829,17.028,17.028,0,0,1,5.523-10.833,17.027,17.027,0,0,1,11.447-4.409,17.087,17.087,0,0,1,17.068,17.068,17.086,17.086,0,0,1-17.068,17.067,17.044,17.044,0,0,1-16.956-15.121A.935.935,0,0,0,1648.859-127.706Z" transform="translate(-1639.58 163.968)" fill="#baa566"/>
  <path id="Path_11823" data-name="Path 11823" d="M1665.481-144.821a15.261,15.261,0,0,0-14.6,14.584,15.075,15.075,0,0,0,4.236,11.138,15.069,15.069,0,0,0,10.954,4.672,15.223,15.223,0,0,0,13.329-7.9,1.6,1.6,0,0,0,.083-1.374,1.6,1.6,0,0,0-1.01-.937l-1.162-.365a.585.585,0,0,1-.411-.561V-133.7a.585.585,0,0,1,.411-.561l1.162-.365a1.6,1.6,0,0,0,1.01-.936,1.6,1.6,0,0,0-.084-1.378A15.15,15.15,0,0,0,1665.481-144.821Zm12.128,21.872a13.353,13.353,0,0,1-11.54,6.657,13.223,13.223,0,0,1-9.611-4.1,13.224,13.224,0,0,1-3.615-7.5l5.769-2.381a10.226,10.226,0,0,1,7.6-.092l1.824.7a12.2,12.2,0,0,0,7,.513v3.588a2.443,2.443,0,0,0,1.716,2.34h0Zm-.861-13.089a2.441,2.441,0,0,0-1.716,2.339v2.633a10.314,10.314,0,0,1-6.33-.335l-1.824-.7a12.084,12.084,0,0,0-8.977.109l-5.166,2.133q0-.151.008-.3a13.39,13.39,0,0,1,12.811-12.8c.173-.006.345-.009.518-.009a13.287,13.287,0,0,1,11.54,6.657Z" transform="translate(-1638.802 164.768)" fill="#baa566"/>
  <path id="Path_11824" data-name="Path 11824" d="M1672.959-134.73v5.318a.933.933,0,0,0,.932.933.933.933,0,0,0,.933-.933v-5.318a.933.933,0,0,0-.933-.933A.933.933,0,0,0,1672.959-134.73Z" transform="translate(-1632.767 167.273)" fill="#baa566"/>
  <path id="Path_11825" data-name="Path 11825" d="M1682.825-144.1v-2.471a1.709,1.709,0,0,0-1.706-1.706h-4.24a1.708,1.708,0,0,0-1.706,1.706v2.471a1.708,1.708,0,0,0,1.706,1.706h4.24A1.708,1.708,0,0,0,1682.825-144.1Zm-1.864-.159h-3.923v-2.153h3.923Z" transform="translate(-1632.162 163.826)" fill="#baa566"/>
</svg>
