<svg xmlns="http://www.w3.org/2000/svg" width="65.44" height="46.834" viewBox="0 0 65.44 46.834">
  <g id="Group_298" data-name="Group 298" transform="translate(0)">
    <path id="Path_11811" data-name="Path 11811" d="M1691.019-307.823v20.344h-17.65l-.947.057v19.232l.056.948,1.841-.057v-12.085h16.7v11.194l.057.948h.891l.95-.057v-39.633l-.057-.947Zm0,22.241v4.3h-16.7v-4.3Z" transform="translate(-1627.477 314.075)" fill="#baa566"/>
    <path id="Path_11812" data-name="Path 11812" d="M1639.018-279.383h16.7v11.194l.057.948h.893l.947-.057v-19.232l-.056-.948h-18.541v-19.453l-.059-.947-1.84.056v39.633l.057.948,1.841-.057Zm16.7-6.2v4.3h-16.7v-4.3Z" transform="translate(-1637.12 314.075)" fill="#baa566"/>
    <path id="Path_11813" data-name="Path 11813" d="M1682.824-293.81a4.053,4.053,0,0,0,4.05-4.047,4.054,4.054,0,0,0-4.05-4.049h-1.633v-2.863l.228-.082a3.541,3.541,0,0,0,2.355-3.329V-311.8l-.057-.95h-6.056l-.95.059v4.507a3.54,3.54,0,0,0,2.355,3.329l.228.082v2.863H1671.1l3-3h-12.953l3,3h-9.3v-2.863l.228-.082a3.54,3.54,0,0,0,2.355-3.329V-311.8l-.058-.95h-6.056l-.948.059v4.507a3.541,3.541,0,0,0,2.355,3.329l.228.082v2.863h-1.635a4.052,4.052,0,0,0-4.049,4.049,4.052,4.052,0,0,0,4.049,4.047h12.225v21.189l-.214.087a6.145,6.145,0,0,0-2.75,2.218l-.49.738.566.523a.829.829,0,0,0,.572.246,1.639,1.639,0,0,0,.945-.462c.614-.5,2.246-1.816,3.459-1.816h2.921c1.215,0,2.843,1.314,3.455,1.809.349.28.931.749,1.514.213l.51-.63-.438-.634a6.113,6.113,0,0,0-2.77-2.217l-.217-.085V-293.81Zm-30.562-17.037h3.268v2.667a1.658,1.658,0,0,1-1.692,1.632,1.625,1.625,0,0,1-1.576-1.632ZM1668.7-293.81v20.791h-3.27V-293.81Zm-17.391-6.2h31.512a2.153,2.153,0,0,1,2.152,2.15,2.154,2.154,0,0,1-2.152,2.15h-31.512a2.153,2.153,0,0,1-2.15-2.15A2.152,2.152,0,0,1,1651.313-300.008Zm27.3-10.84h3.268v2.667a1.634,1.634,0,0,1-1.6,1.63l-.008.219-.024.008-.01,0-.021-.224.006.219-.031-.216a1.626,1.626,0,0,1-1.579-1.632Z" transform="translate(-1634.349 312.746)" fill="#baa566"/>
    <path id="Path_11814" data-name="Path 11814" d="M1656.876-277.395l.059,1.841h14.16a.966.966,0,0,0,.95-1.007v-.891h-14.276Z" transform="translate(-1631.723 322.387)" fill="#baa566"/>
  </g>
</svg>
