<svg id="Group_296" data-name="Group 296" xmlns="http://www.w3.org/2000/svg" width="63.658" height="42.728" viewBox="0 0 63.658 42.728">
  <path id="Path_11805" data-name="Path 11805" d="M1700.545-438.638c-.376,0-.728.015-1.061.045v-15.059a.933.933,0,0,0-.932-.932h-10.963a.933.933,0,0,0-.933.932.933.933,0,0,0,.933.933h10.03v14.463a11.489,11.489,0,0,0-2.694,1.239,7.986,7.986,0,0,1-4.683,1.37,7.989,7.989,0,0,1-4.684-1.37,9.893,9.893,0,0,0-5.62-1.621,10.012,10.012,0,0,0-3.378.526v-14.607h7.041a.933.933,0,0,0,.933-.933.933.933,0,0,0-.933-.932h-1.061v-8.037a3.927,3.927,0,0,0-3.923-3.923,3.928,3.928,0,0,0-3.922,3.923v8.037h-6.107v-8.037a3.927,3.927,0,0,0-3.923-3.923,3.927,3.927,0,0,0-3.923,3.923v8.037h-20a.933.933,0,0,0-.933.932v15.059c-.331-.028-.684-.045-1.061-.045a.933.933,0,0,0-.932.933.933.933,0,0,0,.932.932,7.977,7.977,0,0,1,4.679,1.369,9.864,9.864,0,0,0,5.615,1.622,9.875,9.875,0,0,0,5.617-1.622,7.976,7.976,0,0,1,4.679-1.369,7.986,7.986,0,0,1,4.683,1.369,9.873,9.873,0,0,0,5.617,1.621,9.875,9.875,0,0,0,5.617-1.621,7.978,7.978,0,0,1,4.68-1.369,7.986,7.986,0,0,1,4.683,1.369,9.887,9.887,0,0,0,5.621,1.621,9.886,9.886,0,0,0,5.62-1.621,7.986,7.986,0,0,1,4.683-1.369.933.933,0,0,0,.933-.933A.933.933,0,0,0,1700.545-438.638Zm-39.8.079a12.131,12.131,0,0,0-1.4-.079,9.869,9.869,0,0,0-5.616,1.622,7.978,7.978,0,0,1-4.68,1.369,7.971,7.971,0,0,1-4.677-1.369,11.459,11.459,0,0,0-2.69-1.239v-14.464h19.066Zm1.865-24.063h0a2.06,2.06,0,0,1,2.057-2.057,2.06,2.06,0,0,1,2.057,2.057v8.037h-4.115Zm12.087,25.389c-.126.073-.251.144-.375.216a7.977,7.977,0,0,1-4.68,1.369,7.994,7.994,0,0,1-4.681-1.369,12.264,12.264,0,0,0-2.351-1.134v-2.609H1674.7Zm0-5.392h-12.087v-4.115H1674.7Zm0-5.98h-12.087v-4.115H1674.7Zm1.865-14.017a2.06,2.06,0,0,1,2.057-2.057,2.06,2.06,0,0,1,2.057,2.057v8.037h-4.115Z" transform="translate(-1637.82 466.544)" fill="#baa566"/>
  <path id="Path_11806" data-name="Path 11806" d="M1687.715-440.711a11.146,11.146,0,0,0-2.173.2.933.933,0,0,0-.735,1.095.933.933,0,0,0,.914.752.888.888,0,0,0,.182-.018,9.348,9.348,0,0,1,1.812-.162.933.933,0,0,0,.933-.932A.933.933,0,0,0,1687.715-440.711Z" transform="translate(-1624.99 473.6)" fill="#baa566"/>
  <path id="Path_11807" data-name="Path 11807" d="M1638.752-438.846a7.986,7.986,0,0,1,4.679,1.369,9.864,9.864,0,0,0,5.615,1.622,9.875,9.875,0,0,0,5.617-1.622,7.976,7.976,0,0,1,4.679-1.369,7.985,7.985,0,0,1,4.683,1.369,9.876,9.876,0,0,0,5.617,1.622,9.874,9.874,0,0,0,5.617-1.622,7.978,7.978,0,0,1,4.68-1.369,7.994,7.994,0,0,1,4.684,1.369,9.877,9.877,0,0,0,5.62,1.622,9.4,9.4,0,0,0,4.7-1.1.932.932,0,0,0,.393-1.258.932.932,0,0,0-1.259-.393,7.568,7.568,0,0,1-3.83.89,7.989,7.989,0,0,1-4.684-1.37,9.893,9.893,0,0,0-5.62-1.621,9.874,9.874,0,0,0-5.617,1.622,7.977,7.977,0,0,1-4.68,1.369,7.994,7.994,0,0,1-4.681-1.369,9.875,9.875,0,0,0-5.618-1.622,9.869,9.869,0,0,0-5.616,1.622,7.978,7.978,0,0,1-4.68,1.369,7.971,7.971,0,0,1-4.677-1.369,9.87,9.87,0,0,0-5.616-1.622.933.933,0,0,0-.932.933A.933.933,0,0,0,1638.752-438.846Z" transform="translate(-1637.82 473.6)" fill="#baa566"/>
  <path id="Path_11808" data-name="Path 11808" d="M1699.262-436.8a9.884,9.884,0,0,0-5.62,1.622,7.986,7.986,0,0,1-4.683,1.369,7.99,7.99,0,0,1-4.684-1.369,9.882,9.882,0,0,0-5.62-1.622,9.875,9.875,0,0,0-5.617,1.622,7.977,7.977,0,0,1-4.68,1.369,7.985,7.985,0,0,1-4.681-1.369,9.876,9.876,0,0,0-5.618-1.621,9.87,9.87,0,0,0-5.616,1.621,7.978,7.978,0,0,1-4.68,1.369,7.593,7.593,0,0,1-3.878-.917.932.932,0,0,0-1.26.386.932.932,0,0,0,.387,1.262,9.436,9.436,0,0,0,4.751,1.134,9.885,9.885,0,0,0,5.617-1.621,7.976,7.976,0,0,1,4.679-1.37,7.985,7.985,0,0,1,4.683,1.37,9.882,9.882,0,0,0,5.617,1.621,9.884,9.884,0,0,0,5.617-1.621,7.978,7.978,0,0,1,4.68-1.37,7.985,7.985,0,0,1,4.683,1.37,9.9,9.9,0,0,0,5.621,1.621,9.9,9.9,0,0,0,5.62-1.621,7.985,7.985,0,0,1,4.683-1.37.933.933,0,0,0,.933-.932A.933.933,0,0,0,1699.262-436.8Z" transform="translate(-1636.538 474.67)" fill="#baa566"/>
  <path id="Path_11809" data-name="Path 11809" d="M1638.752-434.932a9.248,9.248,0,0,1,1.813.163.99.99,0,0,0,.182.018.933.933,0,0,0,.914-.752.932.932,0,0,0-.735-1.095,11.049,11.049,0,0,0-2.175-.2.932.932,0,0,0-.932.932A.933.933,0,0,0,1638.752-434.932Z" transform="translate(-1637.82 474.67)" fill="#baa566"/>
</svg>
