<svg xmlns="http://www.w3.org/2000/svg" width="32" height="32" viewBox="0 0 32 32">
  <g id="Layer" transform="translate(-1 -1)">
    <path id="Path_631" data-name="Path 631" d="M28.636,1H5.364A4.364,4.364,0,0,0,1,5.364V28.636A4.364,4.364,0,0,0,5.364,33H28.636A4.364,4.364,0,0,0,33,28.636V5.364A4.364,4.364,0,0,0,28.636,1Zm1.455,27.636a1.455,1.455,0,0,1-1.455,1.455H18.455V21.364a1.455,1.455,0,1,0-2.909,0v8.727H5.364a1.455,1.455,0,0,1-1.455-1.455V22.818h7.273a1.455,1.455,0,0,0,0-2.909H3.909V5.364A1.455,1.455,0,0,1,5.364,3.909H15.545v7.273H8.273a1.455,1.455,0,1,0,0,2.909H17a1.455,1.455,0,0,0,1.455-1.455V3.909H28.636a1.455,1.455,0,0,1,1.455,1.455V19.909H22.818a1.455,1.455,0,0,0,0,2.909h1.455v2.909a1.455,1.455,0,0,0,2.909,0V22.818h2.909Z" fill="#baa566" fill-rule="evenodd"/>
  </g>
</svg>
