<svg id="Group_295" data-name="Group 295" xmlns="http://www.w3.org/2000/svg" width="63.658" height="63.695" viewBox="0 0 63.658 63.695">
  <path id="Path_11799" data-name="Path 11799" d="M1657.862-518.3l.025.183,3.034,2.018-.963,5.779-.074.372.224.308c.02.027.042.053.064.078l-.169,1.395,1.062-1.061.222,0,5.7-5.7a.939.939,0,0,0-.035-1.3l-.308-.276-.769.018-3.55,3.551.042-.344c.118-.98.268-1.681.377-2.192a3.739,3.739,0,0,0,.153-1.155l-.024-.184-.062-.1v-.007l-.038-.053c-.2-.326-.625-.616-1.881-1.427l-.649-.42,5.608-5.609-.579,3.482-.053.624,3.9,2.593h.278a.928.928,0,0,0,.781-.415l.214-.356-.172-.758-2.982-1.988.962-5.772.048-.413-.113-.157.313-1.882-1.359,1.359-.234.012-8.741,8.745-.326.342.017.187-.294.3Z" transform="translate(-1632.239 550.543)" fill="#baa566"/>
  <path id="Path_11800" data-name="Path 11800" d="M1645.587-506.661h.643l.233-.179a1.011,1.011,0,0,0,.375-.932l-.053-.3-.218-.2a3.628,3.628,0,0,0-2.83-1.114c-1.407,0-2.761.564-3.151,1.309a1.023,1.023,0,0,0,.006.954l.21.424.582.059.433-.052.25-.24a2.341,2.341,0,0,1,3.186.015Z" transform="translate(-1636.265 555.288)" fill="#baa566"/>
  <path id="Path_11801" data-name="Path 11801" d="M1649.105-508.851l.685.012.251-.2a1.02,1.02,0,0,0,.37-.909l-.042-.31-.229-.213a7.454,7.454,0,0,0-5.739-2.381c-2.937,0-5.562,1.3-6.172,2.521a1.142,1.142,0,0,0-.1.836l.185.628,1.061-.018.253-.253a6.464,6.464,0,0,1,4.588-1.894,6.448,6.448,0,0,1,4.583,1.89Z" transform="translate(-1636.828 554.472)" fill="#baa566"/>
  <path id="Path_11802" data-name="Path 11802" d="M1643.362-506.031l-.776.178-.153.252a1.035,1.035,0,0,0,0,1.046l.153.247.271.1.36.068.638-.174.153-.256a1.044,1.044,0,0,0,.005-1.024l-.155-.26Zm-.838,1.319a.7.7,0,0,1,0-.744l.624.375Zm1.388.011-.627-.381.622-.386A.7.7,0,0,1,1643.913-504.7Z" transform="translate(-1635.834 556.083)" fill="#baa566"/>
  <path id="Path_11803" data-name="Path 11803" d="M1688.118-533.991l.033.485-.084.026a2.908,2.908,0,0,0-2,2.91,2.936,2.936,0,0,0,2.082,2.873l.072.021.012.074a5.181,5.181,0,0,0,2.161,3.381l.075.052-.031.085a2.9,2.9,0,0,0,.152,2.246,3.042,3.042,0,0,0,1.735,1.558l.082.027v6.78h-10.87v-2.251l-.157-.635-.3-.163a1,1,0,0,0-.491-.125l-.273.015-.5.251-.114.341-.053,9.88.072.643.085.036v.119h.287l.093.038a4.566,4.566,0,0,0,1.668.122,6.147,6.147,0,0,1,.879,0l.106.012v2.352h-28.824a.945.945,0,0,0-.943.945l.078.945h6.3v14.058h-5.714l-.028-.079a3.056,3.056,0,0,0-1.858-1.858l-.079-.028v-.08c0-.13,0-.265,0-.393a3.53,3.53,0,0,0-.1-1.243l-.061-.414-.608-.138-1.361-.019v-3.307a.946.946,0,0,0-.945-.945l-.943.078v4.174h-6.617v-3.307a.946.946,0,0,0-.945-.945l-.943.078v4.176l-.716-.014a2.622,2.622,0,0,0-.811.1l-.479.161-.12.643v4.317a2.689,2.689,0,0,0,1.464,2.565,7.572,7.572,0,0,0,3.236.55c.519,0,1.049-.02,1.6-.041.767-.031,1.324-.056,2.16-.016l.561-.122.179-.347a1.066,1.066,0,0,0,.01-.927l-.188-.383-.419-.084-.221-.021c-1.343-.061-2.621-.026-3.7.019-1.188.046-1.965.11-2.4-.333s-.451-1.252-.4-3.709l.01-.467h10.867v.4l-.08.027a3.04,3.04,0,0,0-1.744,1.564,3.037,3.037,0,0,0-.127,2.344,2.945,2.945,0,0,0,2.882,2.009,2.959,2.959,0,0,0,2.894-2.008l.026-.084h6.661l.945-.078v-15.868h9.8l0,.114a60.321,60.321,0,0,1-.036,6.1c-.037.778-.065,1.391-.044,1.866a2.145,2.145,0,0,0,.193.928l.044.4h.417a9.986,9.986,0,0,0,3.153.182l.134,0c1.01-.019,2.307-.038,3.661-.022h.083l.027.078a3.061,3.061,0,0,0,1.858,1.858l.078.028v.08c0,.13,0,.265,0,.4a3.5,3.5,0,0,0,.1,1.234l.06.415.609.138,3.487.019v2.364h-2.251l-.617.159-.16.257a1.039,1.039,0,0,0-.016,1.029l.165.284.311.1,15.207.053a.945.945,0,0,0,.942-.888v-.088l-.042-.591-.5-.2a4.627,4.627,0,0,0-1.665-.121,6.354,6.354,0,0,1-.88,0l-.1-.012v-2.342l.109-.01c.047,0,.1,0,.211,0l1.775.014c.524,0,.861-.009,1.074-.019l.926.833v-.98h1.264l-1.107-1v-9.358l-.079-.945h-17.875l-.945.078v3.273l-.079.028a3.058,3.058,0,0,0-1.858,1.858l-.028.079h-5.714v-7.68h10.75l.945-.079v-5.117l-.078-.945h-3.112v-4.49h11.813l.945-.079v-8.589l.082-.027a3.044,3.044,0,0,0,1.735-1.557,2.911,2.911,0,0,0,.152-2.249l-.031-.085.075-.052a5.177,5.177,0,0,0,2.16-3.381l.014-.074.072-.021a2.9,2.9,0,0,0,2.082-2.855,2.936,2.936,0,0,0-2-2.928l-.083-.027v-.449l.033-.035a7.329,7.329,0,0,0-.105-10.354,7.038,7.038,0,0,0-4.939-2.146,7.26,7.26,0,0,0-4.195,1.393,8.23,8.23,0,0,0-2.805,3.464,6.811,6.811,0,0,0-.47,3.8A7.244,7.244,0,0,0,1688.118-533.991Zm4.063,10.832a1.148,1.148,0,0,1,1.166-1.182l0-.153h0l0,.153a1.148,1.148,0,0,1,1.165,1.182,1.149,1.149,0,0,1-1.168,1.183A1.15,1.15,0,0,1,1692.18-523.16Zm2.983-2.558-.067.043-.064-.042a3.086,3.086,0,0,0-3.368,0l-.065.043-.067-.042a3.305,3.305,0,0,1-1.234-1.492l-.115-.323h6.333l-.056.159A3.3,3.3,0,0,1,1695.163-525.718Zm-6.879-15.214a5.263,5.263,0,0,1,4.9-3.611h.177l.151,0a5.245,5.245,0,0,1,4.886,3.589,5.251,5.251,0,0,1-1.422,5.883l-.206.176-.071.261a3.107,3.107,0,0,0-.047.843l0,.121h-2.368v-2.917l1.864-1.867a.935.935,0,0,0,.249-.659l-.027-.36-.727-.687-.475.188a3.684,3.684,0,0,0-1.2,1.021,5.567,5.567,0,0,1-.555.561l-.077.063-.077-.064a5.915,5.915,0,0,1-.553-.559,3.925,3.925,0,0,0-1.191-1.018l-.617-.068-.4.339-.507.708,2.4,2.4v2.917h-2.367l0-.2a2.714,2.714,0,0,0-.049-.764l-.07-.26-.207-.173A5.229,5.229,0,0,1,1688.285-540.932Zm.811,11.513a1.183,1.183,0,0,1-1.182-1.182,1.182,1.182,0,0,1,1.182-1.182h8.507a1.15,1.15,0,0,1,1.165,1.183,1.146,1.146,0,0,1-1.158,1.182Zm-38.275,44.652a1.149,1.149,0,0,1-1.166-1.182,1.149,1.149,0,0,1,1.166-1.183l0-.221h0l0,.223a1.149,1.149,0,0,1,1.165,1.183A1.148,1.148,0,0,1,1650.821-484.768Zm36.029,0v-2.364h6.617v2.364Zm-5.2-8.952.009.209a1.147,1.147,0,0,1,1.163,1.182,1.149,1.149,0,0,1-1.168,1.183,1.15,1.15,0,0,1-1.166-1.183,1.148,1.148,0,0,1,1.166-1.182Zm8.845-2.981h7.227v6.506Zm-7.9,7.278.083-.027a2.933,2.933,0,0,0,2.009-2.871,2.946,2.946,0,0,0-2.009-2.888l-.083-.027V-496.7h5.073l8.534,7.68H1682.6Z" transform="translate(-1637.057 546.521)" fill="#baa566"/>
  <path id="Path_11804" data-name="Path 11804" d="M1637.511-531.935l.132.157h5.869v4.49h-5.434l-.945.079v7.244l.079.945h6.3v5.434l.079.945h12.679v5.541l-.106.012a6.009,6.009,0,0,1-.933-.006,4.368,4.368,0,0,0-1.615.125l-.508.245-.028.616.064.418.523.491h3.548l.943-.078v-14.686l-.078-.945h-5.237v-.629l16.066-9.039,4.86,2.735.232.117.292,0,.716.4v-.81l.088-.105.039-.226a8.419,8.419,0,0,0,.032-1.451,6.194,6.194,0,0,1,0-.69l.012-.1h3.415v5.036l.04.575,6.339,3.566v.629h-4.37a.946.946,0,0,0-.945.945l.079.945h6.18l.945-.079v-2.992l-.041-.575-6.339-3.564v-5.429l-.078-.945-6.211,0-.654.117-.167.457a3.407,3.407,0,0,0-.1,1.2l0,.538-3.928-2.211-.229-.11-.48.01-17.206,9.679-.482.319v2.633l.078.945h5.237v4.49H1645.4l0-.117c-.019-1.25,0-2.258.02-3.067a7.413,7.413,0,0,0-.152-2.627l-.023-.41h-.35l-.077-.032a7.413,7.413,0,0,0-2.646-.142c-.836.017-1.929.032-3.033.019l-.118,0V-525.4h9.687l.738-.058.026-.1h.051l0-.174.138-.513-.011-.151a6.5,6.5,0,0,1,.009-.817,8.35,8.35,0,0,0,.009-1.036,2.1,2.1,0,0,0-.126-.617l-.106-.54-.783-.014-.624.12-.168.46a3.661,3.661,0,0,0-.095,1.283l0,.267H1645.4v-4.49h5.435l.778-.052.142-.69c.831-4,1.678-6.872,2.3-8.967.338-1.142.628-2.128.773-2.852a2.87,2.87,0,0,0,.057-1.324l.151-.6h-.7a2.374,2.374,0,0,0-.573-.159,25.341,25.341,0,0,0-4-.04c-1.339.042-3,.093-5.017.093-1.157,0-2.289-.016-3.543-.048l-.7.1-3.343,13.371-.089.465.1.13-.1.417Zm3.9-10.236.592-2.365h2.306l-.591,2.365Zm8.5,0,.591-2.365h2.307l-.591,2.365Zm-10.631,8.5.592-2.364h2.307l-.592,2.364Zm1.063-4.252.592-2.365h2.306l-.591,2.365Zm5.316-4.252.591-2.365h2.307l-.591,2.365Zm-1.063,4.252.591-2.365h2.307l-.591,2.365Zm1.834,1.888-.591,2.364h-2.307l.591-2.364Zm3.661,2.364h-2.306l.591-2.364h2.306Zm-1.243-4.252.591-2.365h2.306l-.591,2.365Z" transform="translate(-1637.069 546.515)" fill="#baa566"/>
</svg>
