<svg xmlns="http://www.w3.org/2000/svg" width="210.158" height="111.988" viewBox="0 0 210.158 111.988">
  <g id="Group_922" data-name="Group 922" transform="translate(-327.843 -8457.001)">
    <g id="Group_1" data-name="Group 1" transform="translate(443.765 8457.006)">
      <path id="Path_1" data-name="Path 1" d="M-58.078-.837-80.518,12.505l-22.444,13.344-1.127.671,4.476,2.638L-78.3,16.486-56.976,3.805l.013-5.305Z" transform="translate(104.089 1.5)" fill="#e0e0e2"/>
    </g>
    <g id="Group_2" data-name="Group 2" transform="translate(443.764 8538.391)">
      <path id="Path_2" data-name="Path 2" d="M-5.651,0,8.769,8.574l-1.6,4.36L-9.009,3.313l-1.119-.665Z" transform="translate(10.128)" fill="#444749"/>
    </g>
    <g id="Group_3" data-name="Group 3" transform="translate(443.765 8485.023)">
      <path id="Path_3" data-name="Path 3" d="M-5.649-3.331V47.4l-4.476,2.649V-5.969Z" transform="translate(10.125 5.969)" fill="#96999b"/>
    </g>
    <g id="Group_4" data-name="Group 4" transform="translate(533.523 8485.023)">
      <path id="Path_4" data-name="Path 4" d="M0-3.331V47.4l4.475,2.638V-5.969Z" transform="translate(0 5.969)" fill="#7f8287"/>
    </g>
    <g id="Group_5" data-name="Group 5" transform="translate(523.807 8538.401)">
      <path id="Path_5" data-name="Path 5" d="M0-7.294V-2l13.066-7.77,1.127-.67L9.715-13.072Z" transform="translate(0 13.072)" fill="#595b5b"/>
    </g>
    <g id="Group_6" data-name="Group 6" transform="translate(457.97 8487.953)">
      <path id="Path_6" data-name="Path 6" d="M-20.773-12.349-37.229-2.565v41.9l16.456,9.784L-4.317,58.9l.347-.206V-21.925l-.347-.207Z" transform="translate(37.229 22.132)" fill="#aa9666"/>
    </g>
    <g id="Group_7" data-name="Group 7" transform="translate(497.501 8494.707)">
      <path id="Path_7" data-name="Path 7" d="M-5.775-85.27l.1-67.553-4.578,2.853-.093,62.541Z" transform="translate(10.35 152.823)" fill="#aa9666"/>
    </g>
    <g id="Group_8" data-name="Group 8" transform="translate(508.747 8501.448)">
      <path id="Path_8" data-name="Path 8" d="M-5.776-68.667l.1-54.4-4.578,2.853-.094,49.388Z" transform="translate(10.351 123.067)" fill="#aa9666"/>
    </g>
    <g id="Group_9" data-name="Group 9" transform="translate(519.755 8507.535)">
      <path id="Path_9" data-name="Path 9" d="M-5.144-52.808l.085-41.836-4.078,2.853-.083,36.824Z" transform="translate(9.219 94.644)" fill="#aa9666"/>
    </g>
    <g id="Group_10" data-name="Group 10" transform="translate(490.879 8457.001)">
      <path id="Path_10" data-name="Path 10" d="M-.01,0-.018,5.305,21.307,17.986h.009L42.628,30.658,47.1,28.02l-1.127-.671L23.544,14.011,1.1.669Z" transform="translate(0.018)" fill="#adafb2"/>
    </g>
    <g id="Group_11" data-name="Group 11" transform="translate(381.915 8490.317)">
      <path id="Path_11" data-name="Path 11" d="M-56.635-13.07a4.479,4.479,0,0,1-.952,2.866,3.151,3.151,0,0,1-2.588,1.294h-5.3v-2.564h4.525a1.908,1.908,0,0,0,1.43-.431,2.254,2.254,0,0,0,.4-1.527v-3.506h2.486Zm-7.877,4.16a12.948,12.948,0,0,1-2.277-.125A4.233,4.233,0,0,1-68.041-9.9a3.686,3.686,0,0,1-2.358.994h-5.352v-2.564h4.58a1.912,1.912,0,0,0,1.43-.431,2.257,2.257,0,0,0,.4-1.527v-3.511h2.485v3.51a1.89,1.89,0,0,0,.584,1.659,3.486,3.486,0,0,0,1.761.3Zm-10.276,0a8.26,8.26,0,0,1-1.93-.183,2.321,2.321,0,0,1-1.464-1.178,3.393,3.393,0,0,1-2.867,1.655,4.848,4.848,0,0,1-3.408-1.689,4.569,4.569,0,0,1-3.614,1.689,3.969,3.969,0,0,1-3.327-1.8,3.974,3.974,0,0,1-2.768,1.381,27.364,27.364,0,0,1-3.23.125V-11.47h2.081a3.646,3.646,0,0,0,1.906-.359,2.089,2.089,0,0,0,.7-1.861v-1.939h2.429v2.481a1.893,1.893,0,0,0,.636,1.473,2.168,2.168,0,0,0,1.505.579q1.7,0,1.7-1.6v-2.937h2.429v2.458a1.955,1.955,0,0,0,.655,1.492,2.129,2.129,0,0,0,1.5.583q1.744,0,1.742-1.6v-2.937h2.429v2.6a1.39,1.39,0,0,0,.9,1.319,8.881,8.881,0,0,0,2,.228Zm-21.419,0a6.282,6.282,0,0,1-4.423-1.25,3.556,3.556,0,0,1-.857-2.656V-23.425H-99v9.488c0,1.183.19,1.908.579,2.173a5.793,5.793,0,0,0,2.217.294Z" transform="translate(101.502 23.425)" fill="#baa566"/>
    </g>
    <g id="Group_13" data-name="Group 13" transform="translate(424.935 8490.685)">
      <path id="Path_13" data-name="Path 13" d="M-2.016,0l.8.476.8.476v1.9l-.8.476-.8.476-.8-.476-.8-.476V.95l.8-.476Z" transform="translate(3.613)" fill="#baa566"/>
    </g>
    <g id="Group_14" data-name="Group 14" transform="translate(424.3 8495.997)">
      <path id="Path_14" data-name="Path 14" d="M-1.569,0l.621.37.621.37V2.215l-.621.37-.621.37-.621-.37-.621-.37V.739l.621-.37Z" transform="translate(2.812)" fill="#baa566"/>
    </g>
    <g id="Group_15" data-name="Group 15" transform="translate(414.108 8495.997)">
      <path id="Path_15" data-name="Path 15" d="M-1.569,0l.621.37.621.37V2.215l-.621.37-.621.37-.621-.37-.621-.37V.739l.621-.37Z" transform="translate(2.812)" fill="#baa566"/>
    </g>
    <g id="Group_16" data-name="Group 16" transform="translate(403.318 8496.854)">
      <path id="Path_16" data-name="Path 16" d="M-1.529,0l.606.36.606.361V2.16l-.606.361-.606.36-.606-.36L-2.74,2.16V.721L-2.134.36Z" transform="translate(2.74)" fill="#baa566"/>
    </g>
    <g id="Group_17" data-name="Group 17" transform="translate(396.985 8496.854)">
      <path id="Path_17" data-name="Path 17" d="M-1.532,0l.606.36L-.32.721V2.16l-.607.361-.606.36-.607-.36-.607-.361V.721L-2.139.36Z" transform="translate(2.746)" fill="#baa566"/>
    </g>
    <g id="Group_18" data-name="Group 18" transform="translate(390.716 8496.854)">
      <path id="Path_18" data-name="Path 18" d="M-1.529,0l.606.36.606.361V2.16l-.606.361-.606.36-.606-.36L-2.74,2.16V.721L-2.134.36Z" transform="translate(2.74)" fill="#baa566"/>
    </g>
    <g id="Group_19" data-name="Group 19" transform="translate(381.933 8488.834)">
      <path id="Path_19" data-name="Path 19" d="M-1.567,0l.621.369.621.369V2.213l-.621.369-.621.369-.62-.369-.621-.369V.733l.621-.369Z" transform="translate(2.809)" fill="#baa566"/>
    </g>
    <g id="Group_20" data-name="Group 20" transform="translate(420.251 8490.685)">
      <path id="Path_20" data-name="Path 20" d="M-2.016,0l.8.476.8.476v1.9l-.8.476-.8.476-.8-.476-.8-.476V.95l.8-.476Z" transform="translate(3.613)" fill="#baa566"/>
    </g>
    <g id="Group_21" data-name="Group 21" transform="translate(413.419 8507.728)">
      <path id="Path_21" data-name="Path 21" d="M-2.016,0l.8.476.8.476v1.9l-.8.476-.8.476-.8-.476-.8-.476V.95l.8-.476Z" transform="translate(3.613)" fill="#baa566"/>
    </g>
    <g id="Group_22" data-name="Group 22" transform="translate(408.735 8507.728)">
      <path id="Path_22" data-name="Path 22" d="M-2.016,0l.8.476.8.476v1.9l-.8.476-.8.476-.8-.476-.8-.476V.95l.8-.476Z" transform="translate(3.613)" fill="#baa566"/>
    </g>
    <g id="Group_921" data-name="Group 921" transform="translate(327.843 8457.001)">
      <g id="Group_23" data-name="Group 23" transform="translate(0.037 32.445)">
        <path id="Path_23" data-name="Path 23" d="M-57.031-15.665q0,2.99-3.266,2.992h-6.679v-2.2H-60.3q.844,0,.843-1.028a1.044,1.044,0,0,0-.267-.759l-5.543-6.02-.357-2.459,7.839-2.933.32,2.223L-63-23.722l4.381,5.046a13.815,13.815,0,0,1,1.187,1.737,2.466,2.466,0,0,1,.4,1.273M-72.151-8.483a1.2,1.2,0,0,1-.391.926,1.323,1.323,0,0,1-.941.367,1.607,1.607,0,0,1-1.038-.343A1.153,1.153,0,0,1-75-8.483q0-1.209,1.369-1.21Q-72.15-9.694-72.151-8.483Zm4.086,0a1.2,1.2,0,0,1-.4.926,1.321,1.321,0,0,1-.94.367,1.606,1.606,0,0,1-1.038-.343,1.154,1.154,0,0,1-.474-.951c0-.806.458-1.21,1.369-1.21Q-68.064-9.694-68.066-8.483Zm1.9-4.191a11.262,11.262,0,0,1-1.963-.108,3.606,3.606,0,0,1-1.076-.747,3.173,3.173,0,0,1-2.031.855h-4.607v-2.2H-71.9a1.643,1.643,0,0,0,1.231-.371,1.941,1.941,0,0,0,.345-1.315v-2.07h2.14v2.07a1.628,1.628,0,0,0,.5,1.427,3,3,0,0,0,1.516.259Zm-8.861,0h-.759a2.485,2.485,0,0,1-2.245-1.21,3.044,3.044,0,0,1-2.661,1.41A3.394,3.394,0,0,1-83.5-13.982a3.273,3.273,0,0,1-2.671,1.553,3.161,3.161,0,0,1-2.16-.91,6.97,6.97,0,0,1-1.389,4.324,4.708,4.708,0,0,1-3.919,1.894h-3.3a4.895,4.895,0,0,1-3.8-1.686,5.8,5.8,0,0,1-1.471-4.011v-3.3h2.14v3.407a3.3,3.3,0,0,0,.949,2.467,3.349,3.349,0,0,0,2.448.928H-93.9a3.393,3.393,0,0,0,2.452-.951,3.244,3.244,0,0,0,.984-2.449v-5.911h2.14v2.315a1.7,1.7,0,0,0,.511,1.265,1.7,1.7,0,0,0,1.244.5c1,0,1.5-.459,1.5-1.371v-2.71h2.14v2.295a1.688,1.688,0,0,0,.532,1.289,1.833,1.833,0,0,0,1.3.5c.985,0,1.479-.459,1.479-1.371v-2.71h2.092v2.423q0,1.333,2.5,1.332Zm-9.742-9.72a1.208,1.208,0,0,1-.409.927,1.334,1.334,0,0,1-.943.38,1.635,1.635,0,0,1-1.042-.33,1.173,1.173,0,0,1-.473-.976q0-1.221,1.385-1.222Q-84.771-23.617-84.771-22.394Zm4.135,0a1.217,1.217,0,0,1-.4.935,1.379,1.379,0,0,1-.965.371,1.64,1.64,0,0,1-1.046-.33,1.168,1.168,0,0,1-.477-.976q0-1.221,1.393-1.222C-81.135-23.617-80.636-23.207-80.636-22.394Zm-3.412-1.775a1.626,1.626,0,0,1-1.064-.341,1.2,1.2,0,0,1-.466-1q0-1.215,1.443-1.214a1.67,1.67,0,0,1,.965.3.988.988,0,0,1,.485.847,1.36,1.36,0,0,1-.4,1,1.3,1.3,0,0,1-.965.414Z" transform="translate(102.212 28.075)" fill="#baa566"/>
      </g>
    </g>
    <g id="Group_25" data-name="Group 25" transform="translate(359.185 8507.375)">
      <path id="Path_25" data-name="Path 25" d="M-1.792,0l.709.422.709.422V2.533l-.709.422-.709.422L-2.5,2.955l-.71-.422V.844L-2.5.422Z" transform="translate(3.212)" fill="#baa566"/>
    </g>
    <g id="Group_26" data-name="Group 26" transform="translate(355.102 8507.378)">
      <path id="Path_26" data-name="Path 26" d="M-1.8,0l.713.425L-.374.85v1.7l-.713.423-.713.425-.713-.425-.713-.423V.854l.713-.425Z" transform="translate(3.227)" fill="#baa566"/>
    </g>
    <g id="Group_27" data-name="Group 27" transform="translate(342.488 8493.412)">
      <path id="Path_27" data-name="Path 27" d="M-1.791,0l.711.422.709.422V2.533l-.709.422-.711.422L-2.5,2.955l-.709-.422V.839L-2.5.417Z" transform="translate(3.209)" fill="#baa566"/>
    </g>
    <g id="Group_28" data-name="Group 28" transform="translate(346.557 8493.412)">
      <path id="Path_28" data-name="Path 28" d="M-1.791,0l.711.422.709.422V2.533l-.709.422-.711.422L-2.5,2.955l-.709-.422V.839L-2.5.417Z" transform="translate(3.209)" fill="#baa566"/>
    </g>
    <g id="Group_29" data-name="Group 29" transform="translate(344.539 8490.405)">
      <path id="Path_29" data-name="Path 29" d="M-1.791,0l.711.422.709.422V2.533l-.709.422-.711.422L-2.5,2.955l-.709-.422V.844L-2.5.422Z" transform="translate(3.209)" fill="#baa566"/>
    </g>
    <g id="Group_30" data-name="Group 30" transform="translate(370.927 8489.449)">
      <path id="Path_30" data-name="Path 30" d="M-1.732,0l.477.411.472.4-.109.63-.1.622-.586.218-.575.221-.477-.411-.473-.4.109-.63.1-.622.584-.218Z" transform="translate(3.104)" fill="#baa566"/>
    </g>
    <g id="Group_31" data-name="Group 31" transform="translate(359.776 8497.94)">
      <path id="Path_31" data-name="Path 31" d="M-1.344,0l.532.318L-.28.636V1.908l-.532.318-.532.318-.532-.318-.533-.318V.63l.533-.318Z" transform="translate(2.409)" fill="#baa566"/>
    </g>
    <g id="Group_32" data-name="Group 32" transform="translate(350.476 8497.94)">
      <path id="Path_32" data-name="Path 32" d="M-1.32,0-.8.311l.523.311V1.867L-.8,2.178l-.523.311-.523-.311-.523-.311V.617l.523-.311Z" transform="translate(2.366)" fill="#baa566"/>
    </g>
    <g id="Group_33" data-name="Group 33" transform="translate(345.032 8497.94)">
      <path id="Path_33" data-name="Path 33" d="M-1.344,0l.532.318L-.28.636V1.909l-.532.318-.532.318-.532-.318-.533-.318V.63l.533-.318Z" transform="translate(2.409)" fill="#baa566"/>
    </g>
    <g id="Group_34" data-name="Group 34" transform="translate(339.636 8497.94)">
      <path id="Path_34" data-name="Path 34" d="M-1.344,0l.532.318L-.28.636V1.909l-.532.318-.532.318-.532-.318-.533-.318V.63l.533-.318Z" transform="translate(2.409)" fill="#baa566"/>
    </g>
    <g id="Group_35" data-name="Group 35" transform="translate(327.891 8500.126)">
      <path id="Path_35" data-name="Path 35" d="M-.672-.4-1.2-.084V1.189l.532.318.533.318.532-.318.533-.318V-.084L.393-.4-.139-.72Z" transform="translate(1.204 0.72)" fill="#baa566"/>
    </g>
    <g id="Group_36" data-name="Group 36" transform="translate(327.843 8523.768)">
      <path id="Path_36" data-name="Path 36" d="M-111.028-18.491V-32.882h1.854v5.915h7.269v-5.911h1.855v14.39h-1.855V-25.27h-7.269v6.777Zm-14.694-4.61,1.766-.164a3.386,3.386,0,0,0,1.346,2.531,4.741,4.741,0,0,0,2.777.8,4.038,4.038,0,0,0,2.608-.72,2.182,2.182,0,0,0,.867-1.741,1.894,1.894,0,0,0-.428-1.233,2.7,2.7,0,0,0-1.176-.8,24.717,24.717,0,0,0-2.662-.724,13.113,13.113,0,0,1-2.387-.761,3.9,3.9,0,0,1-1.57-1.268,3.281,3.281,0,0,1-.6-1.982,3.669,3.669,0,0,1,.58-2.1,3.956,3.956,0,0,1,1.73-1.36,6.541,6.541,0,0,1,2.612-.5,5.606,5.606,0,0,1,3.859,1.186,4.263,4.263,0,0,1,1.415,3.117l-1.765.137q-.291-2.774-3.415-2.774-3.222,0-3.226,2.172a1.626,1.626,0,0,0,.4,1.1,2.393,2.393,0,0,0,1.011.686,17.233,17.233,0,0,0,1.925.529,17.6,17.6,0,0,1,3.135.925,4.6,4.6,0,0,1,1.331.914,3.5,3.5,0,0,1,.773,1.165,3.866,3.866,0,0,1,.254,1.427,3.74,3.74,0,0,1-1.51,3.152,5.867,5.867,0,0,1-3.674,1.146,6.389,6.389,0,0,1-4.392-1.341,4.772,4.772,0,0,1-1.586-3.514Zm-5.441-9.78h1.855v14.391h-1.855Zm0,14.391-14.395,0V-32.882h1.855v7.142l6.975-7.142h2.478l-5.869,5.826,6.138,8.559h-2.407l-5.021-7.271-2.288,2.275v5ZM-163.2-24.238h4.675l-1.438-3.87c-.479-1.3-.8-2.258-.978-2.893a18.153,18.153,0,0,1-.747,2.657Zm-3.889,5.747,5.216-13.98h1.961l5.555,13.98h-2.054l-1.57-4.249H-163.7l-1.464,4.249Zm-12.734-4.479,1.714-.16a3.3,3.3,0,0,0,1.308,2.467,4.6,4.6,0,0,0,2.7.773,3.923,3.923,0,0,0,2.528-.7,2.118,2.118,0,0,0,.844-1.691,1.839,1.839,0,0,0-.416-1.2,2.609,2.609,0,0,0-1.143-.778,23.985,23.985,0,0,0-2.586-.7,12.6,12.6,0,0,1-2.32-.739,3.789,3.789,0,0,1-1.525-1.233,3.2,3.2,0,0,1-.583-1.919,3.572,3.572,0,0,1,.563-2.035,3.847,3.847,0,0,1,1.686-1.321,6.347,6.347,0,0,1,2.538-.488,5.447,5.447,0,0,1,3.749,1.151,4.151,4.151,0,0,1,1.375,3.029l-1.716.129c-.188-1.8-1.3-2.695-3.317-2.695q-3.13,0-3.133,2.111a1.578,1.578,0,0,0,.382,1.068,2.316,2.316,0,0,0,.983.663,16.563,16.563,0,0,0,1.863.514,16.969,16.969,0,0,1,3.046.9,4.445,4.445,0,0,1,1.293.888,3.366,3.366,0,0,1,.751,1.132,3.758,3.758,0,0,1,.246,1.386,3.63,3.63,0,0,1-1.464,3.069,5.716,5.716,0,0,1-3.569,1.111,6.2,6.2,0,0,1-4.266-1.3,4.625,4.625,0,0,1-1.529-3.429Zm-5.286-9.5h1.8v13.98h-1.8Zm0,13.98-9.407,0V-30.826h-4.474v-1.645h10.751v1.645h-4.475v12.335Z" transform="translate(198.986 33.14)" fill="#6d7072"/>
    </g>
    <path id="Path_38" data-name="Path 38" d="M.175-118.317h98.88v-.858H.175Z" transform="translate(327.745 8635.484)" fill="#aa9666"/>
  </g>
</svg>
