<svg xmlns="http://www.w3.org/2000/svg" xmlns:xlink="http://www.w3.org/1999/xlink" width="133.279" height="67.786" viewBox="0 0 133.279 67.786">
  <defs>
    <clipPath id="clip-path">
      <path id="Path_53" data-name="Path 53" d="M0-26.118H133.279V-93.9H0Z" transform="translate(0 93.904)" fill="#fff"/>
    </clipPath>
  </defs>
  <g id="Group_54" data-name="Group 54" transform="translate(0 93.904)">
    <g id="Group_39" data-name="Group 39" transform="translate(71.697 -93.903)">
      <path id="Path_39" data-name="Path 39" d="M-13.574,0-48.805,20.186l35.231-15v3.98L-47.332,26.541l33.758-12.735v4.18l-35.231,16.09,35.231-11.449v3.533L-47.332,40.472-13.574,30.8v5.171L-33.36,42.547l2.579,1.416L-13.574,40.6v5.7l-11.295,2.322.96,3.107,10.335-.786V54.6L-22.6,55.966l1.066,3.45,7.96-.175v4.051l-6.6.508,1.231,3.985H12.776V15.115Z" transform="translate(48.805)" fill="#fff"/>
    </g>
    <g id="Group_40" data-name="Group 40" transform="translate(64.823 -50.753)">
      <path id="Path_40" data-name="Path 40" d="M-3.051-2.8l12.4-2.81v3.788L-2.437,2.545H9.348V5.386L-2.805,8.808H9.225l-.307,3.31-19.886,2.444H24.385L18.309-5.49,12.095-8.9l-1.857-1.02-.277-.152Z" transform="translate(10.968 10.073)" fill="#fff"/>
    </g>
    <g id="Group_53" data-name="Group 53" transform="translate(0 -93.904)" clip-path="url(#clip-path)">
      <g id="Group_41" data-name="Group 41" transform="translate(0 17.767)">
        <path id="Path_41" data-name="Path 41" d="M-.934-6.06A7.364,7.364,0,0,0,.562-5a7.658,7.658,0,0,0,1.743.671A7.914,7.914,0,0,0,4.248-4.1H6.856a12.757,12.757,0,0,0,3.383-.388A5.41,5.41,0,0,0,12.5-5.678,4.662,4.662,0,0,0,13.77-7.721a9.745,9.745,0,0,0,.4-2.949,2.839,2.839,0,0,0-.532-1.754,2.949,2.949,0,0,0-1.719-1L7.574-14.536a.961.961,0,0,1-.012-.154v-.154a3.849,3.849,0,0,1,.34-1.65,3.623,3.623,0,0,1,.928-1.231,4.065,4.065,0,0,1,1.385-.77,5.431,5.431,0,0,1,1.725-.265,4.885,4.885,0,0,1,.891.08,10.154,10.154,0,0,1,1.013.253l.78-2.955a14.139,14.139,0,0,0-1.391-.308,7.738,7.738,0,0,0-1.231-.1,8.589,8.589,0,0,0-3.135.541,7.033,7.033,0,0,0-2.355,1.471A6.416,6.416,0,0,0,5.026-17.6a6.838,6.838,0,0,0-.519,2.653,7.629,7.629,0,0,0,.154,1.508,9.219,9.219,0,0,0,.476,1.582q.507.123,1.107.277t1.218.32l1.218.326,1.113.3.891.234q.377.1.55.148a3.765,3.765,0,0,1-.279,1.489,2.172,2.172,0,0,1-.8.942A3.537,3.537,0,0,1,8.8-7.328a11.63,11.63,0,0,1-1.948.141H4.248a4.76,4.76,0,0,1-2.183-.5A3.789,3.789,0,0,1,.513-9.119a5.528,5.528,0,0,1-.791-3.029A8.517,8.517,0,0,1-.186-13.4a8.984,8.984,0,0,1,.3-1.293q.2-.671.507-1.429t.736-1.668L-1.392-19.1q-.52,1.071-.89,1.995a18.03,18.03,0,0,0-.612,1.766A11.88,11.88,0,0,0-3.246-13.7a11.663,11.663,0,0,0-.112,1.613A8.569,8.569,0,0,0-2.134-7.47a7.475,7.475,0,0,0,1.2,1.41" transform="translate(3.358 21.787)" fill="#fff"/>
      </g>
      <g id="Group_42" data-name="Group 42" transform="translate(21.542 10.909)">
        <path id="Path_42" data-name="Path 42" d="M-.134-5.811A3.58,3.58,0,0,0,.479-4.629a3.047,3.047,0,0,0,1.07.831,6.06,6.06,0,0,0,1.644.492,13.02,13.02,0,0,0,1.842.16v.006h5.33a5.128,5.128,0,0,0,1.7-.3,4.524,4.524,0,0,0,1.527-.9,4.479,4.479,0,0,0,1.1-1.533,5.3,5.3,0,0,0,.42-2.2q0-.406-.056-.948t-.149-1.115q-.092-.572-.2-1.138t-.2-1.028c-.066-.308-.126-.568-.18-.782s-.089-.349-.1-.406l-2.906.874q.049.184.136.523t.173.751q.087.413.179.874t.167.9c.049.3.088.572.117.832a6.078,6.078,0,0,1,.043.658,2.115,2.115,0,0,1-.21,1.028,1.585,1.585,0,0,1-.488.56,1.392,1.392,0,0,1-.557.228,3.084,3.084,0,0,1-.427.043H5.53A9.764,9.764,0,0,1,3.9-6.31a1.476,1.476,0,0,1-.878-.431,1.619,1.619,0,0,1-.359-.917A14.4,14.4,0,0,1,2.6-9.233V-20.892H-.48V-9.233q0,1.034.069,1.89A7.036,7.036,0,0,0-.134-5.811" transform="translate(0.48 20.892)" fill="#fff"/>
      </g>
      <g id="Group_43" data-name="Group 43" transform="translate(33.018 31.444)">
        <path id="Path_43" data-name="Path 43" d="M-.207-.206A1.751,1.751,0,0,0-.745,1.08a1.763,1.763,0,0,0,.538,1.3,1.779,1.779,0,0,0,1.3.536,1.763,1.763,0,0,0,1.292-.536,1.763,1.763,0,0,0,.539-1.3A1.751,1.751,0,0,0,2.389-.206,1.763,1.763,0,0,0,1.1-.742a1.779,1.779,0,0,0-1.3.536" transform="translate(0.745 0.742)" fill="#fff"/>
      </g>
      <g id="Group_44" data-name="Group 44" transform="translate(27.849 31.444)">
        <path id="Path_44" data-name="Path 44" d="M-.71-1.409A1.766,1.766,0,0,0,.582-1.944a1.763,1.763,0,0,0,.538-1.3A1.748,1.748,0,0,0,.582-4.529,1.766,1.766,0,0,0-.71-5.065a1.778,1.778,0,0,0-1.3.536,1.748,1.748,0,0,0-.538,1.286,1.763,1.763,0,0,0,.538,1.3,1.778,1.778,0,0,0,1.3.536" transform="translate(2.552 5.065)" fill="#fff"/>
      </g>
      <g id="Group_45" data-name="Group 45" transform="translate(40.165 17.84)">
        <path id="Path_45" data-name="Path 45" d="M-.326-3.4a3.907,3.907,0,0,0,.915.942,5.264,5.264,0,0,0,1.119.622A5.5,5.5,0,0,0,2.945-1.5a8.32,8.32,0,0,0,1.262.1h1.9A3.993,3.993,0,0,1,5.8.091a2.8,2.8,0,0,1-.785.972,3.289,3.289,0,0,1-.785.487,5.239,5.239,0,0,1-1.051.332,11.065,11.065,0,0,1-1.372.2q-.773.068-1.763.068V5.212a22.948,22.948,0,0,0,2.306-.1,11.933,11.933,0,0,0,1.849-.326,8.3,8.3,0,0,0,1.5-.548,7.042,7.042,0,0,0,1.237-.77A5.637,5.637,0,0,0,8.621,1.316a7.574,7.574,0,0,0,.557-3.084V-6.138a9.751,9.751,0,0,0-.284-2.419A5.374,5.374,0,0,0,8-10.484a4.232,4.232,0,0,0-1.57-1.274A5.282,5.282,0,0,0,4.12-12.22a5.117,5.117,0,0,0-2.028.4A5.322,5.322,0,0,0,.409-10.681q-.26.284-.544.659a4.576,4.576,0,0,0-.513.88,6.018,6.018,0,0,0-.378,1.164A6.9,6.9,0,0,0-1.173-6.47,6.1,6.1,0,0,0-.945-4.722,4.632,4.632,0,0,0-.326-3.4M2.45-8.5a2.19,2.19,0,0,1,1.67-.653,2.136,2.136,0,0,1,.321.031,1.592,1.592,0,0,1,.414.129,1.907,1.907,0,0,1,.445.3,1.844,1.844,0,0,1,.408.53A3.256,3.256,0,0,1,6-7.338a5.618,5.618,0,0,1,.111,1.2v1.675h-1.9a3.264,3.264,0,0,1-.841-.111A2.328,2.328,0,0,1,2.6-4.926a1.881,1.881,0,0,1-.557-.622,1.843,1.843,0,0,1-.217-.923A2.87,2.87,0,0,1,2.45-8.5" transform="translate(1.173 12.22)" fill="#fff"/>
      </g>
      <g id="Group_46" data-name="Group 46" transform="translate(51.839 20.155)">
        <path id="Path_46" data-name="Path 46" d="M-1.8-5.626A6.675,6.675,0,0,0,.566-7.1,6.777,6.777,0,0,0,2.1-9.411a9.087,9.087,0,0,0,.631-3.059v-7.756H-.35v7.5a7.126,7.126,0,0,1-.272,2.111,3.3,3.3,0,0,1-.828,1.41,3.292,3.292,0,0,1-1.422.788,7.574,7.574,0,0,1-2.053.246H-6.458v3.065h1.533A8.89,8.89,0,0,0-1.8-5.626" transform="translate(6.458 20.227)" fill="#fff"/>
      </g>
      <g id="Group_47" data-name="Group 47" transform="translate(24.435 45.786)">
        <path id="Path_47" data-name="Path 47" d="M-.71-1.409A1.766,1.766,0,0,0,.582-1.944a1.763,1.763,0,0,0,.538-1.3A1.749,1.749,0,0,0,.582-4.529,1.766,1.766,0,0,0-.71-5.065a1.778,1.778,0,0,0-1.3.536,1.75,1.75,0,0,0-.539,1.286,1.763,1.763,0,0,0,.539,1.3,1.778,1.778,0,0,0,1.3.536" transform="translate(2.553 5.065)" fill="#fff"/>
      </g>
      <g id="Group_48" data-name="Group 48" transform="translate(19.267 45.786)">
        <path id="Path_48" data-name="Path 48" d="M-.71-1.409A1.766,1.766,0,0,0,.582-1.944a1.763,1.763,0,0,0,.538-1.3A1.749,1.749,0,0,0,.582-4.529,1.766,1.766,0,0,0-.71-5.065a1.778,1.778,0,0,0-1.3.536,1.749,1.749,0,0,0-.538,1.286,1.763,1.763,0,0,0,.538,1.3,1.778,1.778,0,0,0,1.3.536" transform="translate(2.552 5.065)" fill="#fff"/>
      </g>
      <g id="Group_49" data-name="Group 49" transform="translate(21.95 42.302)">
        <path id="Path_49" data-name="Path 49" d="M-1.134-.194A1.659,1.659,0,0,0-2.346-.7a1.672,1.672,0,0,0-1.224.5,1.657,1.657,0,0,0-.507,1.219A1.645,1.645,0,0,0-3.57,2.231a1.672,1.672,0,0,0,1.224.5,1.659,1.659,0,0,0,1.212-.5A1.645,1.645,0,0,0-.627,1.024,1.657,1.657,0,0,0-1.134-.194" transform="translate(4.077 0.699)" fill="#fff"/>
      </g>
      <g id="Group_50" data-name="Group 50" transform="translate(41.166 64.019)">
        <path id="Path_50" data-name="Path 50" d="M-.71,0a1.778,1.778,0,0,0-1.3.536,1.75,1.75,0,0,0-.539,1.286,1.766,1.766,0,0,0,.539,1.3,1.78,1.78,0,0,0,1.3.535A1.768,1.768,0,0,0,.582,3.121a1.766,1.766,0,0,0,.538-1.3A1.749,1.749,0,0,0,.582.536,1.766,1.766,0,0,0-.71,0" transform="translate(2.553 0)" fill="#fff"/>
      </g>
      <g id="Group_51" data-name="Group 51" transform="translate(35.998 64.019)">
        <path id="Path_51" data-name="Path 51" d="M-.71,0a1.779,1.779,0,0,0-1.3.536,1.749,1.749,0,0,0-.538,1.286,1.766,1.766,0,0,0,.538,1.3,1.781,1.781,0,0,0,1.3.535A1.768,1.768,0,0,0,.582,3.121a1.766,1.766,0,0,0,.538-1.3A1.749,1.749,0,0,0,.582.536,1.766,1.766,0,0,0-.71,0" transform="translate(2.552 0)" fill="#fff"/>
      </g>
      <g id="Group_52" data-name="Group 52" transform="translate(0 41.157)">
        <path id="Path_52" data-name="Path 52" d="M-22.761-5.5a7.7,7.7,0,0,0-.655-1.255q-.42-.665-.959-1.361T-25.525-9.5q-.612-.7-1.23-1.342t-1.206-1.225q-.587-.578-1.057-1.034l9.052-3.977-1.125-2.684-10.759,4.9-.248,2.782q.408.3,1.089.886t1.453,1.36q.772.77,1.558,1.638t1.416,1.717a13.064,13.064,0,0,1,1.032,1.6,2.841,2.841,0,0,1,.4,1.281.48.48,0,0,1-.241.424,1.884,1.884,0,0,1-.575.234,3.767,3.767,0,0,1-.68.1c-.231.013-.412.019-.544.019h-8.569q-.112,0-.421-.031a1.821,1.821,0,0,1-.624-.185,1.62,1.62,0,0,1-.562-.467,1.369,1.369,0,0,1-.248-.868v-3.9h-3.066v3.989a1.976,1.976,0,0,1-.069.5.959.959,0,0,1-.3.468,1.807,1.807,0,0,1-.68.351,4.149,4.149,0,0,1-1.206.141h-4.748A2.764,2.764,0,0,1-49.4-3.257a1.706,1.706,0,0,1-.562-1.366V-8.267h-3.067v3.521a1.968,1.968,0,0,1-.2.936,1.831,1.831,0,0,1-.482.59,1.765,1.765,0,0,1-.612.314,2.2,2.2,0,0,1-.588.092,2.313,2.313,0,0,1-1.564-.437,1.824,1.824,0,0,1-.513-1.373V-8.267h-3.066v3.521a1.983,1.983,0,0,1-.2.929,1.747,1.747,0,0,1-.494.6,1.9,1.9,0,0,1-.625.314,2.193,2.193,0,0,1-.587.092,4.183,4.183,0,0,1-.847-.086,1.488,1.488,0,0,1-.736-.394,2.182,2.182,0,0,1-.52-.917,5.615,5.615,0,0,1-.2-1.668V-8.267H-67.34V.214a6.245,6.245,0,0,1-.167,1.514,2.4,2.4,0,0,1-.625,1.127,2.913,2.913,0,0,1-1.28.7,7.825,7.825,0,0,1-2.133.24h-2.733a4.449,4.449,0,0,1-2.145-.523,4.347,4.347,0,0,1-1.564-1.4A6.538,6.538,0,0,1-78.55.572a5.037,5.037,0,0,1-.229-1.527,9.144,9.144,0,0,1,.087-1.268,8.958,8.958,0,0,1,.284-1.305A14.545,14.545,0,0,1-77.9-4.962q.309-.757.742-1.656L-79.93-7.96Q-80.436-6.9-80.8-5.978A18.408,18.408,0,0,0-81.389-4.2a12.281,12.281,0,0,0-.34,1.662,12.511,12.511,0,0,0-.105,1.618,8.37,8.37,0,0,0,.322,2.389A8.446,8.446,0,0,0-80.6,3.514,7.211,7.211,0,0,0-79.4,4.893a7.734,7.734,0,0,0,1.5,1.052,7.74,7.74,0,0,0,1.732.677,7.482,7.482,0,0,0,1.9.24h2.733A7.978,7.978,0,0,0-66.1,5.231,6.372,6.372,0,0,0-64.262.214V-.2A4.436,4.436,0,0,0-63.18.141a6.938,6.938,0,0,0,1.219.1,5.011,5.011,0,0,0,1.774-.332,5.75,5.75,0,0,0,1.589-.9A5.194,5.194,0,0,0-54.937.239a5.008,5.008,0,0,0,1.774-.332,5.744,5.744,0,0,0,1.59-.9,5.58,5.58,0,0,0,3.9,1.231h4.748a7.851,7.851,0,0,0,2.158-.271,4.417,4.417,0,0,0,1.639-.849,3.862,3.862,0,0,0,1.46.837,6.126,6.126,0,0,0,1.917.283H-27.4a7.2,7.2,0,0,0,2.022-.246,5.28,5.28,0,0,0,1.385-.6,3.245,3.245,0,0,0,.86-.776,4.166,4.166,0,0,0,.458-.751,4.2,4.2,0,0,0,.2-.628,3.587,3.587,0,0,0,.092-.862,4.956,4.956,0,0,0-.087-.873,5.031,5.031,0,0,0-.3-1" transform="translate(81.834 19.766)" fill="#fff"/>
      </g>
    </g>
  </g>
</svg>