<svg id="Touch" xmlns="http://www.w3.org/2000/svg" width="24" height="24.006" viewBox="0 0 24 24.006">
  <g id="touch-2" data-name="touch" transform="translate(0 0)">
    <path id="Path" d="M21,9a2.94,2.94,0,0,0-1.47.4A3,3,0,0,0,17,8a2.94,2.94,0,0,0-1.47.4A3,3,0,0,0,12,7.18V3A3,3,0,0,0,6,3v9.59l-.67-.68A3.125,3.125,0,0,0,0,14.12,5.54,5.54,0,0,0,1.62,18l3.56,3.55.93,1.86A1,1,0,0,0,7,24a.93.93,0,0,0,.45-.11,1,1,0,0,0,.44-1.34l-1-2a1.1,1.1,0,0,0-.18-.26L3,16.62a3.5,3.5,0,0,1-1-2.5,1.12,1.12,0,0,1,1.91-.79l2.38,2.38A1.006,1.006,0,0,0,8,15V3a1,1,0,0,1,2,0V14a1,1,0,0,0,2,0V10a1,1,0,0,1,2,0v4a1,1,0,0,0,2,0V11a1,1,0,0,1,2,0v3a1,1,0,0,0,2,0V12a1,1,0,0,1,2,0v6.17a5.79,5.79,0,0,1-1.71,4.12,1,1,0,1,0,1.42,1.42A7.78,7.78,0,0,0,24,18.17V12A3,3,0,0,0,21,9Z"/>
    <path id="Path-2" data-name="Path" d="M2.547.143l-2,1A1,1,0,0,0,1,3.033a.93.93,0,0,0,.45-.11l2-1a1,1,0,1,0-.9-1.78Z" transform="translate(1.003 6.967)"/>
    <path id="Path-3" data-name="Path" d="M.485,1.857l2,1a.93.93,0,0,0,.45.11,1,1,0,0,0,.45-1.89l-2-1a1,1,0,0,0-.9,1.78Z" transform="translate(1.065 0.033)"/>
    <path id="Path-4" data-name="Path" d="M1,2H3A1,1,0,0,0,3,0H1A1,1,0,0,0,1,2Z" transform="translate(0 4)"/>
    <path id="Path-5" data-name="Path" d="M1,2.967a.93.93,0,0,0,.45-.11l2-1a1,1,0,0,0-.9-1.78l-2,1A1,1,0,0,0,1,2.967Z" transform="translate(13.003 0.033)"/>
    <path id="Path-6" data-name="Path" d="M0,1A1,1,0,0,0,1,2H3A1,1,0,0,0,3,0H1A1,1,0,0,0,0,1Z" transform="translate(14 4)"/>
  </g>
</svg>
