<svg xmlns="http://www.w3.org/2000/svg" width="40.92" height="40.919" viewBox="0 0 40.92 40.919">
  <g id="Group_289" data-name="Group 289" transform="translate(0)">
    <g id="Group_288" data-name="Group 288" transform="translate(0 0)">
      <path id="Path_11796" data-name="Path 11796" d="M3238.921,745.448h11.822a.74.74,0,0,1,0,1.48h-3.256v6.407h14.326v-6.407h-8.6a.74.74,0,0,1,0-1.48h25.149a.741.741,0,0,1,.741.741v39.438a.741.741,0,0,1-.741.741h-39.438a.741.741,0,0,1-.741-.741V746.189A.741.741,0,0,1,3238.921,745.448Zm15.066,9.369h-14.325v6.406h9.6a.741.741,0,0,1,0,1.481h-1.774v6.406h14.326V762.7h-10.083a.741.741,0,1,1,0-1.481h2.257Zm-14.325,15.775V777h14.325v-6.406Zm15.807-15.775v6.406h14.325v-6.406Zm22.152-7.888h-14.326v6.407h14.326Zm0,7.888h-6.345v6.406h6.345Zm0,7.888h-14.326v6.407h14.326Zm0,7.888h-6.345V777h6.345Zm-14.326,14.295h14.326V778.48h-10.687a.741.741,0,0,1,0-1.481h2.861v-6.406h-14.325V777h9a.741.741,0,0,1,0,1.481h-1.171v6.407Zm-15.807,0h14.326V778.48h-14.326Zm-7.826,0h6.345V778.48h-6.345Zm0-15.776h6.345V762.7h-6.345Zm0-15.775h6.345v-6.407h-6.345Z" transform="translate(-3238.18 -745.448)" fill="#baa566"/>
    </g>
  </g>
</svg>
